<?xml version="1.0" encoding="UTF-8"?>
<!-- Generator: Adobe Illustrator 22.0.1, SVG Export Plug-In . SVG Version: 6.00 Build 0)  -->
<svg version="1.1" id="圖層_1" xmlns="http://www.w3.org/2000/svg" xmlns:xlink="http://www.w3.org/1999/xlink" x="0px" y="0px" viewBox="0 0 16 24" width="16px" height="24px" style="enable-background:new 0 0 16 24;" xml:space="preserve">
<style type="text/css">
	.st0{fill:#87C2FA;stroke:#87C2FA;stroke-width:0.5;stroke-miterlimit:10;}
	.st1{fill:#FFFFFF;stroke:#FFFFFF;stroke-width:0.5;stroke-miterlimit:10;}
</style>
<g>
	<g>
		<g>
			<path class="st0" d="M15.3,0.3H0.8c-0.1,0-0.3,0.2-0.3,0.4v10.2c0,0.2,0.2,0.4,0.3,0.4h14.4c0.2,0,0.3-0.2,0.3-0.4V0.6     C15.6,0.4,15.4,0.3,15.3,0.3z M14.9,9.6l-4.2-4.2l-0.5,0.5l4.6,4.6H1.3L6,5.9L5.4,5.4L1.2,9.6V0.9h13.7V9.6L14.9,9.6z"/>
		</g>
	</g>
	<g>
		<g>
			<path class="st0" d="M14.2,0.9L8,7.1L1.9,0.9H1.2v0.3l6.6,6.6c0.1,0.1,0.4,0.1,0.5,0l6.6-6.6V0.9H14.2z"/>
		</g>
	</g>
</g>
<g>
	<g>
		<g>
			<path class="st1" d="M15.3,12.7H0.8c-0.1,0-0.3,0.2-0.3,0.4v10.2c0,0.2,0.2,0.4,0.3,0.4h14.4c0.2,0,0.3-0.2,0.3-0.4V13.1     C15.6,12.9,15.4,12.7,15.3,12.7z M14.9,22.2L10.7,18l-0.5,0.5l4.6,4.6H1.3L6,18.4l-0.5-0.5l-4.2,4.3v-8.7H15v8.7H14.9z"/>
		</g>
	</g>
	<g>
		<g>
			<path class="st1" d="M14.2,13.4L8,19.6l-6.1-6.1H1.2v0.3l6.6,6.6c0.1,0.1,0.4,0.1,0.5,0l6.6-6.6v-0.3     C14.8,13.5,14.2,13.5,14.2,13.4z"/>
		</g>
	</g>
</g>
</svg>