<?xml version="1.0" encoding="UTF-8"?>
<!-- Generator: Adobe Illustrator 22.0.1, SVG Export Plug-In . SVG Version: 6.00 Build 0)  -->
<svg version="1.1" xmlns="http://www.w3.org/2000/svg" xmlns:xlink="http://www.w3.org/1999/xlink" x="0px" y="0px" width="16px" height="32px" viewBox="0 0 21 42" style="enable-background:new 0 0 21 42;" xml:space="preserve">
<style type="text/css">
	.st0{fill:#86C3FF;}
	.st1{fill:#FFFFFF;}
</style>
<g id="圖層_1">
	<g>
		<path class="st0" d="M12,0.1c-0.8-0.5-1.3,0-1.3,0L4.8,4.9c0,0-3.1,0-3.8,0c-0.6,0-1,0.8-1,1.2c0,0.5,0,7.4,0,8.5    c0,1.1,1,1.2,1,1.2l3.7,0.1l6,4.9c0,0,0.7,0.4,1.2,0c0.6-0.4,0.6-1,0.6-1V1.2C12.5,1.2,12.6,0.5,12,0.1z M4.2,14.2H1.7V6.5h2.5    V14.2z M10.9,18.7l-5.1-4.1V6.1L10.9,2V18.7z"/>
		<path class="st0" d="M15,4.6l-0.9,1.3c0,0,1.9,1.4,1.9,4.3s-2.1,4.3-2.1,4.3l0.9,1.3c0,0,2.8-2,2.8-5.6C17.6,6.6,15,4.6,15,4.6z"/>
		<path class="st0" d="M17.3,4.2c0,0,2,1.5,2,5.9c0,4.4-2.2,6.1-2.2,6.1l1.1,1.2c0,0,2.8-2.1,2.8-7.3S18.5,3,18.5,3L17.3,4.2z"/>
	</g>
</g>
<g id="圖層_1_x5F_复制">
	<g>
		<path class="st1" d="M12,21.2c-0.8-0.5-1.3,0-1.3,0L4.8,26c0,0-3.1,0-3.8,0c-0.6,0-1,0.8-1,1.2c0,0.5,0,7.4,0,8.5    c0,1.1,1,1.2,1,1.2L4.7,37l6,4.9c0,0,0.7,0.4,1.2,0c0.6-0.4,0.6-1,0.6-1V22.3C12.5,22.3,12.6,21.6,12,21.2z M4.2,35.3H1.7v-7.7    h2.5V35.3z M10.9,39.8l-5.1-4.1v-8.5l5.1-4.1V39.8z"/>
		<path class="st1" d="M15,25.7L14.1,27c0,0,1.9,1.4,1.9,4.3s-2.1,4.3-2.1,4.3l0.9,1.3c0,0,2.8-2,2.8-5.6C17.6,27.7,15,25.7,15,25.7    z"/>
		<path class="st1" d="M17.3,25.3c0,0,2,1.5,2,5.9c0,4.4-2.2,6.1-2.2,6.1l1.1,1.2c0,0,2.8-2.1,2.8-7.3s-2.5-7.1-2.5-7.1L17.3,25.3z"/>
	</g>
</g>
</svg>