<?xml version="1.0" encoding="UTF-8"?>
<!-- Generator: Adobe Illustrator 22.0.1, SVG Export Plug-In . SVG Version: 6.00 Build 0)  -->
<svg version="1.1" id="圖層_1" xmlns="http://www.w3.org/2000/svg" xmlns:xlink="http://www.w3.org/1999/xlink" x="0px" y="0px" viewBox="0 0 16 32" width="16px" height="32px" style="enable-background:new 0 0 16 32;" xml:space="preserve">
<style type="text/css">
	.st0{fill:#81BEF7;stroke:#81BEF7;stroke-width:0.5;stroke-miterlimit:10;}
	.st1{fill:#FFFFFF;stroke:#FFFFFF;stroke-width:0.5;stroke-miterlimit:10;}
</style>
<g>
	<path class="st0" d="M14.9,6.4l-1.1-0.2c-0.1-0.4-0.3-0.7-0.4-1.1L14,4.3c0.3-0.4,0.2-0.9-0.1-1.2l-1-1c-0.2-0.2-0.4-0.3-0.6-0.3   c-0.2,0-0.4,0.1-0.5,0.2l-0.9,0.6c-0.4-0.2-0.7-0.4-1.1-0.5L9.6,1.1C9.5,0.6,9.2,0.3,8.7,0.3H7.3c-0.4,0-0.9,0.4-1,0.8L6.2,2.2   C5.8,2.3,5.5,2.5,5.1,2.6L4.2,2C4.1,1.9,3.9,1.8,3.7,1.8C3.4,1.8,3.2,1.9,3,2.1l-0.9,1C1.7,3.4,1.7,3.9,2,4.3l0.6,0.9   C2.4,5.5,2.3,5.9,2.2,6.2L1.1,6.4c-0.4,0.1-0.8,0.5-0.8,1v1.3c0,0.4,0.4,0.9,0.8,0.9l1.1,0.2c0.1,0.4,0.2,0.7,0.4,1.1L2,11.8   c-0.3,0.4-0.2,0.9,0.1,1.2l1,0.9c0.2,0.2,0.4,0.3,0.7,0.3c0.2,0,0.4-0.1,0.5-0.2l0.9-0.6c0.4,0.2,0.7,0.3,1,0.4l0.2,1.1   c0.1,0.4,0.4,0.8,0.9,0.8h1.3c0.4,0,0.9-0.4,0.9-0.8l0.2-1.1c0.4-0.1,0.7-0.3,1.1-0.4l0.9,0.6c0.2,0.1,0.4,0.2,0.5,0.2   c0.3,0,0.5-0.1,0.7-0.3l1-1c0.4-0.4,0.4-0.8,0.1-1.2l-0.6-0.9c0.2-0.4,0.4-0.7,0.4-1.1l1.1-0.2c0.4-0.1,0.8-0.4,0.8-0.9V7.4   C15.7,6.9,15.4,6.5,14.9,6.4z M14.8,8.7L14.8,8.7C14.8,8.7,14.8,8.8,14.8,8.7L13.4,9c-0.2,0-0.3,0.2-0.4,0.3   c-0.1,0.4-0.3,0.9-0.5,1.3c-0.1,0.2-0.1,0.4,0,0.4l0.8,1.1c0,0,0,0.1,0,0.1l-1,1c0,0,0,0-0.1,0c0,0,0,0-0.1,0l-1.1-0.8   c-0.2-0.1-0.4-0.1-0.4,0c-0.4,0.3-0.9,0.4-1.3,0.5c-0.2,0-0.3,0.2-0.3,0.4l-0.3,1.4c0,0,0,0.1-0.1,0.1H7.4c0,0-0.1,0-0.1-0.1   L7,13.4c0-0.2-0.2-0.3-0.3-0.4c-0.4-0.1-0.9-0.3-1.3-0.5c-0.1,0-0.2-0.1-0.2-0.1c-0.1,0-0.2,0-0.3,0.1l-1.2,0.8c0,0,0,0-0.1,0   c0,0,0,0-0.1,0l-1-1c0,0,0-0.1,0-0.1l0.8-1.1c0.1-0.2,0.1-0.4,0-0.4C3.3,10.3,3.1,9.9,3,9.4c0-0.2-0.2-0.3-0.4-0.3L1.2,8.8   c0,0-0.1,0-0.1-0.1V7.4c0,0,0-0.1,0.1-0.1L2.6,7c0.2,0,0.3-0.2,0.4-0.3c0.1-0.4,0.3-0.9,0.5-1.3c0.1-0.2,0.1-0.4,0-0.4L2.7,3.8   c0,0,0-0.1,0-0.1l1-1c0,0,0,0,0.1,0c0,0,0,0,0.1,0l1.1,0.8c0.2,0.1,0.4,0.1,0.4,0C5.7,3.3,6.2,3.1,6.7,3c0.2,0,0.3-0.2,0.3-0.4   l0.3-1.4c0,0,0-0.1,0.1-0.1h1.3c0,0,0.1,0,0.1,0.1L9,2.6c0,0.2,0.2,0.3,0.3,0.4c0.5,0.1,1,0.3,1.4,0.5c0.2,0.1,0.4,0.1,0.4,0   l1.1-0.8c0,0,0,0,0.1,0c0,0,0,0,0.1,0l1,1c0,0,0,0.1,0,0.1l-0.8,1.1c-0.1,0.1-0.1,0.4,0,0.4c0.3,0.4,0.4,0.9,0.5,1.3   c0,0.2,0.2,0.3,0.4,0.3l1.3,0.2c0,0,0.1,0,0.1,0.1L14.8,8.7L14.8,8.7z"/>
	<path class="st0" d="M8,4.7C6.1,4.7,4.7,6.2,4.7,8s1.5,3.3,3.3,3.3c1.9,0,3.3-1.5,3.3-3.3S9.9,4.7,8,4.7z M8,10.5   c-1.3,0-2.5-1.1-2.5-2.5S6.7,5.5,8,5.5s2.5,1.1,2.5,2.5S9.4,10.5,8,10.5z"/>
</g>
<g>
	<path class="st1" d="M14.9,22.4l-1.1-0.2c-0.1-0.4-0.3-0.7-0.4-1.1l0.6-0.9c0.3-0.4,0.2-0.9-0.1-1.2l-1-1c-0.2-0.2-0.4-0.3-0.7-0.3   c-0.2,0-0.4,0.1-0.5,0.2l-0.9,0.6c-0.4-0.2-0.7-0.4-1.1-0.5l-0.1-1.1c-0.1-0.4-0.4-0.8-0.9-0.8H7.3c-0.4,0-0.9,0.4-1,0.8l-0.2,1.1   c-0.4,0.1-0.7,0.3-1.1,0.4L4.2,18c-0.2-0.1-0.4-0.2-0.5-0.2c-0.3,0-0.5,0.1-0.7,0.3l-0.9,1c-0.4,0.4-0.4,0.8-0.1,1.2l0.6,0.9   c-0.2,0.4-0.3,0.7-0.4,1.1l-1.1,0.2c-0.4,0.1-0.8,0.5-0.8,1v1.3c0,0.4,0.4,0.9,0.8,0.9l1.1,0.2c0.1,0.4,0.2,0.7,0.4,1.1L2,27.8   c-0.3,0.4-0.2,0.9,0.1,1.2l1,0.9c0.2,0.2,0.4,0.3,0.7,0.3c0.2,0,0.4-0.1,0.5-0.2l0.9-0.6c0.4,0.2,0.7,0.3,1,0.4l0.2,1.1   c0.1,0.4,0.4,0.8,0.9,0.8h1.3c0.4,0,0.9-0.4,0.9-0.8l0.2-1.1c0.4-0.1,0.7-0.3,1.1-0.4l0.9,0.6c0.2,0.1,0.4,0.2,0.5,0.2   c0.3,0,0.5-0.1,0.7-0.3l1-1c0.4-0.4,0.4-0.8,0.1-1.2l-0.6-0.9c0.2-0.4,0.4-0.7,0.4-1.1l1.1-0.2c0.4-0.1,0.8-0.4,0.8-0.9v-1.3   C15.7,22.9,15.4,22.5,14.9,22.4z M14.8,24.7L14.8,24.7C14.8,24.7,14.8,24.8,14.8,24.7L13.4,25c-0.2,0-0.3,0.2-0.4,0.3   c-0.1,0.4-0.3,0.9-0.5,1.3c-0.1,0.2-0.1,0.4,0,0.4l0.8,1.1c0,0,0,0.1,0,0.1l-1,1c0,0,0,0-0.1,0c0,0,0,0-0.1,0l-1.1-0.8   c-0.2-0.1-0.4-0.1-0.4,0c-0.4,0.3-0.9,0.4-1.3,0.5c-0.2,0-0.3,0.2-0.3,0.4l-0.3,1.4c0,0,0,0.1-0.1,0.1H7.4c0,0-0.1,0-0.1-0.1   L7,29.4c0-0.2-0.2-0.3-0.3-0.4c-0.4-0.1-0.9-0.3-1.3-0.5c-0.1,0-0.2-0.1-0.2-0.1c-0.1,0-0.2,0-0.3,0.1l-1.2,0.8c0,0,0,0-0.1,0   c0,0,0,0-0.1,0l-1-1c0,0,0-0.1,0-0.1l0.8-1.1c0.1-0.2,0.1-0.4,0-0.4c-0.3-0.4-0.4-0.9-0.5-1.3c0-0.2-0.2-0.3-0.4-0.3l-1.4-0.3   c0,0-0.1,0-0.1-0.1v-1.4c0,0,0-0.1,0.1-0.1L2.6,23c0.2,0,0.3-0.2,0.4-0.3c0.1-0.4,0.3-0.9,0.5-1.3c0.1-0.2,0.1-0.4,0-0.4l-0.8-1.2   c0,0,0-0.1,0-0.1l1-1c0,0,0,0,0.1,0c0,0,0,0,0.1,0l1.1,0.8c0.2,0.1,0.4,0.1,0.4,0c0.4-0.3,0.9-0.4,1.3-0.5c0.2,0,0.3-0.2,0.3-0.4   l0.3-1.4c0,0,0-0.1,0.1-0.1h1.3c0,0,0.1,0,0.1,0.1L9,18.6c0,0.2,0.2,0.3,0.3,0.4c0.5,0.1,1,0.3,1.4,0.5c0.2,0.1,0.4,0.1,0.4,0   l1.1-0.8c0,0,0,0,0.1,0c0,0,0,0,0.1,0l1,1c0,0,0,0.1,0,0.1l-0.8,1.1c-0.1,0.1-0.1,0.4,0,0.4c0.3,0.4,0.4,0.9,0.5,1.3   c0,0.2,0.2,0.3,0.4,0.3l1.3,0.2c0,0,0.1,0,0.1,0.1V24.7L14.8,24.7z"/>
	<path class="st1" d="M8,20.7c-1.9,0-3.3,1.5-3.3,3.3s1.5,3.3,3.3,3.3c1.9,0,3.3-1.5,3.3-3.3S9.9,20.7,8,20.7z M8,26.5   c-1.3,0-2.5-1.1-2.5-2.5c0-1.3,1.1-2.5,2.5-2.5s2.5,1.1,2.5,2.5C10.5,25.3,9.4,26.5,8,26.5z"/>
</g>
</svg>