<?xml version="1.0" encoding="UTF-8"?>
<!-- Generator: Adobe Illustrator 22.0.1, SVG Export Plug-In . SVG Version: 6.00 Build 0)  -->
<svg version="1.1" id="圖層_1" xmlns="http://www.w3.org/2000/svg" xmlns:xlink="http://www.w3.org/1999/xlink" x="0px" y="0px" viewBox="0 0 16 32" width="16px" height="32px" style="enable-background:new 0 0 16 32;" xml:space="preserve">
<style type="text/css">
	.st0{fill:#86C3FF;}
	.st1{fill:#FFFFFF;}
</style>
<g>
	<path class="st0" d="M8.2,15.3L0.4,7.4C0,7.1,0,6.5,0.4,6.1L5.5,1c0.4-0.4,0.9-0.4,1.3,0l2.1,2.1c0.4,0.4,0.9,0.4,1.3,0L13,0.3   c0.4-0.4,0.9-0.4,1.3,0l1.4,1.4C16,2.1,16,2.6,15.7,3l-2.5,2.6c-0.3,0.4-0.3,0.9,0,1.3l1.7,1.7c0.4,0.4,0.4,0.9,0,1.3l-5.4,5.4   C9.1,15.6,8.6,15.6,8.2,15.3z M1.8,7.4l6.4,6.4c0.4,0.4,0.9,0.4,1.3,0l4-4c0.4-0.4,0.4-0.9,0-1.3l-1.7-1.7c-0.3-0.3-0.4-0.9,0-1.3   L14.3,3c0.3-0.4,0.3-0.9,0-1.3l0,0c-0.4-0.4-0.9-0.4-1.3,0l-2.8,2.8c-0.4,0.4-0.9,0.4-1.3,0L6.8,2.4C6.4,2,5.9,2,5.5,2.4L1.8,6.1   C1.4,6.5,1.4,7.1,1.8,7.4z"/>
	<rect x="7.2" y="1.9" transform="matrix(0.7071 -0.7071 0.7071 0.7071 -3.3202 7.7497)" class="st0" width="1" height="11.9"/>
	<rect x="1.7" y="7.1" transform="matrix(0.7071 -0.7071 0.7071 0.7071 -4.5648 4.1108)" class="st0" width="2" height="1"/>
	<rect x="4.2" y="9.5" transform="matrix(0.7071 -0.7071 0.7071 0.7071 -5.5262 6.647)" class="st0" width="2.2" height="1"/>
	<rect x="6.6" y="11.9" transform="matrix(0.7071 -0.7071 0.7071 0.7071 -6.5075 9.0919)" class="st0" width="2.3" height="1"/>
</g>
<g>
	<path class="st1" d="M8.2,31.4l-7.9-7.9c-0.4-0.4-0.4-0.9,0-1.3L5.5,17c0.4-0.4,0.9-0.4,1.3,0l2.1,2.1c0.4,0.4,0.9,0.4,1.3,0   l2.8-2.8c0.4-0.4,0.9-0.4,1.3,0l1.4,1.4c0.3,0.3,0.4,0.9,0,1.3l-2.5,2.7c-0.3,0.4-0.3,0.9,0,1.3l1.7,1.7c0.4,0.4,0.4,0.9,0,1.3   l-5.4,5.4C9.1,31.7,8.6,31.7,8.2,31.4z M1.8,23.5l6.4,6.4c0.4,0.4,0.9,0.4,1.3,0l4-4c0.4-0.4,0.4-0.9,0-1.3l-1.7-1.7   c-0.3-0.3-0.4-0.9,0-1.3l2.5-2.6c0.3-0.4,0.3-0.9,0-1.3l0,0c-0.4-0.4-0.9-0.4-1.3,0l-2.8,2.8c-0.4,0.4-0.9,0.4-1.3,0l-2.1-2.1   c-0.4-0.4-0.9-0.4-1.3,0l-3.8,3.8C1.4,22.6,1.4,23.2,1.8,23.5z"/>
	<rect x="7.2" y="18" transform="matrix(0.7071 -0.7071 0.7071 0.7071 -14.6958 12.4615)" class="st1" width="1" height="11.9"/>
	<rect x="1.7" y="23.2" transform="matrix(0.7071 -0.7071 0.7071 0.7071 -15.9404 8.8226)" class="st1" width="2" height="1"/>
	<rect x="4.2" y="25.6" transform="matrix(0.7071 -0.7071 0.7071 0.7071 -16.9017 11.3588)" class="st1" width="2.2" height="1"/>
	<rect x="6.6" y="28" transform="matrix(0.7071 -0.7071 0.7071 0.7071 -17.8831 13.8038)" class="st1" width="2.3" height="1"/>
</g>
</svg>