<?xml version="1.0" encoding="UTF-8"?>
<!-- Generator: Adobe Illustrator 22.0.1, SVG Export Plug-In . SVG Version: 6.00 Build 0)  -->
<svg version="1.0" id="圖層_1" xmlns="http://www.w3.org/2000/svg" xmlns:xlink="http://www.w3.org/1999/xlink" x="0px" y="0px" width="16px" height="32px" viewBox="0 0 16 32" style="enable-background:new 0 0 16 32;" xml:space="preserve">
<style type="text/css">
	.st0{fill:#86C3FF;}
	.st1{fill:#FFFFFF;}
</style>
<g>
	<path class="st0" d="M1.4,7.3C2.6,4.9,5,3.1,8,3.1s5.4,1.7,6.6,4.1L16,5.7C14.3,3,11.4,1.2,8,1.2S1.6,3,0,5.7L1.4,7.3z"/>
	<path class="st0" d="M4.5,10.8C5,9.4,6.3,8.3,8,8.3s2.9,1.1,3.5,2.5l1.4-1.5c-1-1.7-2.8-2.8-4.9-2.8S4.1,7.6,3.1,9.3L4.5,10.8z"/>
	<path class="st0" d="M8,14.7l2.1-2.4c-0.5-0.7-1.2-1.1-2.1-1.1s-1.6,0.4-2.1,1.1L8,14.7z"/>
</g>
<g>
	<path class="st1" d="M1.4,23.3C2.6,20.9,5,19.1,8,19.1s5.4,1.7,6.6,4.1l1.4-1.5c-1.7-2.7-4.6-4.5-8-4.5S1.6,19,0,21.7L1.4,23.3z"/>
	<path class="st1" d="M4.5,26.8C5,25.4,6.3,24.3,8,24.3s2.9,1.1,3.5,2.5l1.4-1.5c-1-1.7-2.8-2.8-4.9-2.8s-3.9,1.1-4.9,2.8L4.5,26.8z   "/>
	<path class="st1" d="M8,30.7l2.1-2.4c-0.5-0.7-1.2-1.1-2.1-1.1s-1.6,0.4-2.1,1.1L8,30.7z"/>
</g>
</svg>