<?xml version="1.0" encoding="UTF-8"?>
<!-- Generator: Adobe Illustrator 24.2.3, SVG Export Plug-In . SVG Version: 6.00 Build 0)  -->
<svg version="1.1" id="圖層_1" xmlns="http://www.w3.org/2000/svg" xmlns:xlink="http://www.w3.org/1999/xlink" x="0px" y="0px" viewBox="0 0 18 15" style="enable-background:new 0 0 18 15;" xml:space="preserve">
<style type="text/css">
	.st0{fill:#87C2FA;}
</style>
<g>
	<path class="st0" d="M15.3,5.1c-0.8-0.1-1.6,0.1-2.2,0.6c-0.3,0.2-0.6,0.5-0.8,0.8c-0.3-1.1-1.2-2.2-2.4-2.4   C8.2,3.8,6.6,4.9,6.3,6.6c-0.3,1.9,0.8,4,2,5.6c0,0,0,0,0,0c0.7,1,1.6,1.9,2.5,2.7c0,0,6.4-2.5,7-6.4C18.1,7,17,5.4,15.3,5.1z"/>
	<path class="st0" d="M5.4,9.6C4.8,9.2,4.3,8.7,3.8,8.3c-0.6-0.6-1-1.1-1.4-1.6C2.1,6.1,1.8,5.5,1.7,4.9c0-0.1,0-0.2,0-0.3   C1.6,4,1.8,3.4,2.2,2.9c0.4-0.5,1-0.8,1.7-0.9c1.1-0.1,2,0.7,2.3,1.4c0.1,0.2,0.3,0.3,0.6,0.4c0.1,0,0.3,0,0.4-0.1   c0.1-0.1,0.2-0.2,0.3-0.3c0.1,0,0.1-0.1,0.1-0.2c0.3-0.7,1-1.6,2-1.7c1.3-0.1,2.5,0.9,2.6,2.3l0,0.2c0,0.1,0.1,0.2,0.1,0.2   c0.1-0.1,0.1-0.1,0.2-0.2c0.3-0.3,0.7-0.4,1.1-0.5c0,0,0-0.1,0-0.1l0-0.1c0,0,0,0,0,0c-0.3-2-2.2-3.5-4.2-3.3   C8.5,0.1,7.5,0.7,6.8,1.7c-0.8-0.8-1.9-1.2-3-1.1c-1,0.1-2,0.6-2.7,1.4c-0.7,0.8-1,1.8-0.9,2.9C0.3,5.8,0.7,6.9,1.5,8   C2.1,8.8,3,9.6,4,10.4c0.8,0.6,1.5,1.1,2.1,1.5C5.7,11.2,5.4,10.4,5.4,9.6z"/>
</g>
</svg>