<?xml version="1.0" encoding="UTF-8"?>
<!-- Generator: Adobe Illustrator 16.0.0, SVG Export Plug-In . SVG Version: 6.00 Build 0)  -->
<!DOCTYPE svg PUBLIC "-//W3C//DTD SVG 1.1//EN" "http://www.w3.org/Graphics/SVG/1.1/DTD/svg11.dtd">
<svg version="1.1" id="圖層_1" xmlns="http://www.w3.org/2000/svg" xmlns:xlink="http://www.w3.org/1999/xlink" x="0px" y="0px" width="50px" height="50px" viewBox="0 0 50 50" enable-background="new 0 0 50 50" xml:space="preserve">
<g>
	<path fill="#FFFFFF" d="M25,4.13l21.983,22.634H41.11c-0.855,0-1.553,0.696-1.553,1.554v17.552h-7.526V35.378   c0-0.857-0.693-1.554-1.554-1.554H19.521c-0.859,0-1.554,0.696-1.554,1.554v10.491h-7.526V28.317c0-0.857-0.694-1.554-1.553-1.554   H3.017L25,4.13 M25,1.113c-0.815,0-1.596,0.33-2.164,0.915L0.853,24.661c-0.845,0.87-1.087,2.16-0.615,3.277   c0.472,1.116,1.566,1.842,2.778,1.842h4.408v16.089c0,1.667,1.351,3.018,3.017,3.018h7.526c1.666,0,3.017-1.351,3.017-3.018v-9.028   h8.03v9.028c0,1.667,1.35,3.018,3.017,3.018h7.526c1.666,0,3.017-1.351,3.017-3.018V29.78h4.409c1.212,0,2.307-0.726,2.779-1.842   c0.471-1.117,0.229-2.407-0.615-3.277L27.164,2.028C26.596,1.443,25.815,1.113,25,1.113L25,1.113z"/>
</g>
</svg>