<?xml version="1.0" encoding="UTF-8"?>
<!-- Generator: Adobe Illustrator 16.0.0, SVG Export Plug-In . SVG Version: 6.00 Build 0)  -->
<!DOCTYPE svg PUBLIC "-//W3C//DTD SVG 1.1//EN" "http://www.w3.org/Graphics/SVG/1.1/DTD/svg11.dtd">
<svg version="1.1" id="Layer_1" xmlns="http://www.w3.org/2000/svg" xmlns:xlink="http://www.w3.org/1999/xlink" x="0px" y="0px" width="50px" height="50px" viewBox="0 0 50 50" enable-background="new 0 0 50 50" xml:space="preserve">
<path fill="#FFFFFF" d="M49.4,12.1c-0.9-1.8-2.1-2.8-3.7-3.2c-1-0.2-2.1-0.2-3.2,0.2c0-0.8,0-1.7,0-2.5L42.5,5h-35l0,1.5  c0,0.9,0,1.7,0,2.5C6.3,8.6,5.3,8.6,4.3,8.8c-1.6,0.4-2.8,1.5-3.7,3.2c-0.8,1.7-0.8,3.6,0,5.6c1.7,4.2,6.6,7.7,10.4,9.3  c1.8,2.6,4.3,4.4,7.7,5.4c1,0.3,1.8,1.2,1.8,2.1c0,0.7-0.4,1.4-1.2,2h-1.3c-1.9,0-3.4,1.5-3.4,3.4V45h20.7v-5.1  c0-1.9-1.5-3.4-3.4-3.4h-1.3c-0.8-0.6-1.2-1.2-1.2-2c0-0.9,0.7-1.8,1.8-2.1c3.4-1.1,5.9-2.8,7.7-5.4c3.9-1.6,8.7-5.1,10.4-9.3  C50.2,15.7,50.2,13.7,49.4,12.1z M32.4,42H17.6v-2.2c0-0.3,0.2-0.5,0.5-0.5h13.8c0.3,0,0.5,0.2,0.5,0.5V42z M26.5,34.4  c0,0.5,0.1,1.2,0.4,2H23c0.3-0.8,0.4-1.5,0.4-2c0-2.2-1.6-4.2-3.9-4.9c-8.3-2.6-9.1-10.2-9.2-21.6h29.2c-0.1,11.4-0.9,19-9.2,21.6  C28.1,30.2,26.6,32.2,26.5,34.4z M9,22.5c-2.3-1.5-4.7-3.6-5.7-6c-0.5-1.2-0.5-2.3,0-3.2c0.5-0.9,1-1.5,1.7-1.7  c0.2,0,0.4-0.1,0.5-0.1c0.8,0,1.5,0.3,2,0.6C7.7,16.6,8.2,19.9,9,22.5z M46.7,16.5c-1,2.4-3.4,4.5-5.7,6c0.8-2.6,1.3-5.9,1.4-10.3  c0.6-0.3,1.7-0.7,2.6-0.5c0.7,0.2,1.2,0.7,1.7,1.7C47.2,14.3,47.2,15.3,46.7,16.5z"/>
</svg>