<?xml version="1.0" encoding="utf-8"?>
<!-- Generator: Adobe Illustrator 16.0.0, SVG Export Plug-In . SVG Version: 6.00 Build 0)  -->
<!DOCTYPE svg PUBLIC "-//W3C//DTD SVG 1.1//EN" "http://www.w3.org/Graphics/SVG/1.1/DTD/svg11.dtd">
<svg version="1.1" id="圖層_1" xmlns="http://www.w3.org/2000/svg" xmlns:xlink="http://www.w3.org/1999/xlink" x="0px" y="0px"
	 width="50px" height="50px" viewBox="0 0 50 50" enable-background="new 0 0 50 50" xml:space="preserve">
<path fill="#BABABA" d="M25,2.9C12.7,2.9,2.7,12,2.7,23.3c0,5.6,2.5,10.7,6.5,14.4c-0.8,3.4-2.4,8.4-4.7,9.4c0,0,6.9-0.2,12.1-4.9
	c2.6,1,5.4,1.5,8.4,1.5c12.3,0,22.3-9.1,22.3-20.4C47.3,12,37.3,2.9,25,2.9z M14.7,22c1.9,0,3.5,1.6,3.5,3.5s-1.5,3.5-3.5,3.5
	c-1.9,0-3.5-1.6-3.5-3.5S12.8,22,14.7,22z M24.9,28.9c-1.9,0-3.5-1.6-3.5-3.5S23,22,24.9,22c1.9,0,3.5,1.6,3.5,3.5
	S26.9,28.9,24.9,28.9z M35.2,28.9c-1.9,0-3.5-1.6-3.5-3.5s1.6-3.5,3.5-3.5c1.9,0,3.5,1.6,3.5,3.5S37.1,28.9,35.2,28.9z"/>
</svg>
