<?xml version="1.0" encoding="UTF-8"?>
<!-- Generator: Adobe Illustrator 27.4.1, SVG Export Plug-In . SVG Version: 6.00 Build 0)  -->
<svg version="1.1" id="图层_1" xmlns="http://www.w3.org/2000/svg" xmlns:xlink="http://www.w3.org/1999/xlink" x="0px" y="0px" viewBox="0 0 50 50" style="enable-background:new 0 0 50 50;" xml:space="preserve">
<style type="text/css">
	.st0{fill:#FFFFFF;}
</style>
<path class="st0" d="M49.2,33c-0.3-0.6-0.5-0.8-1-1.1c-0.6-0.1-1.1-0.1-1.5,0c-0.2,0.1-0.4,0.2-0.5,0.6l-0.1,0.2  c-3,8.3-11.2,13.9-20.5,13.9C13.6,46.7,3.9,37,3.9,25c0-12,9.8-21.7,21.7-21.7c5.1,0,9.3,1.4,12.8,4.3L40,8.9l-2.2,2.9l10.8,1  L45.4,2.4l-3,3.8l-1.7-1.1C35.6,1.7,30.7,0,25.6,0c-13.8,0-25,11.2-25,25c0,13.8,11.2,25,25,25c10.5,0,20-6.4,23.5-16l0.1-0.2  c0.1-0.2,0.1-0.3,0.2-0.5l0,0L49.2,33z"/>
</svg>