<?xml version="1.0" encoding="utf-8"?>
<!-- Generator: Adobe Illustrator 26.0.3, SVG Export Plug-In . SVG Version: 6.00 Build 0)  -->
<svg version="1.1" id="圖層_1" xmlns="http://www.w3.org/2000/svg" xmlns:xlink="http://www.w3.org/1999/xlink" x="0px" y="0px"
	 viewBox="0 0 49.2 51.6" style="enable-background:new 0 0 49.2 51.6;" xml:space="preserve">
<style type="text/css">
	.st0{fill:#0082FF;}
</style>
<g id="组_1" transform="translate(-7406.563 1460)">
	<g id="重複" transform="translate(7406.563 -1460)">
		<path id="路径_1" class="st0" d="M35.1,0l-3.2,4.2l6.3,4.6H0l0.1,13.7h4.7v-9.1h33.4l-6.2,4.8l3.3,4.1l13.9-11.1L35.1,0z"/>
		<path id="路径_2" class="st0" d="M14.1,51.6l3.2-4.2l-6.2-4.6h38.1l-0.1-13.7h-4.7v9.1H11l6.2-4.8l-3.3-4.1L0,40.5L14.1,51.6z"
			/>
	</g>
	<path id="路径_3" class="st0" d="M7435.9-1443.1v17.7h-4.9v-11.6c-0.7,0.6-1.5,1-2.3,1.5c-0.9,0.4-1.8,0.8-2.8,1.1v-4
		c1.4-0.4,2.7-1,3.8-1.9c0.9-0.7,1.6-1.7,2.1-2.8H7435.9z"/>
</g>
</svg>
