<svg id="组_22" data-name="组 22" xmlns="http://www.w3.org/2000/svg" xmlns:xlink="http://www.w3.org/1999/xlink" width="17.241" height="20" viewBox="0 0 17.241 20">
  <defs>
    <clipPath id="clip-path">
      <rect id="矩形_4" data-name="矩形 4" width="17.241" height="20" fill="#4bacff"/>
    </clipPath>
  </defs>
  <g id="组_19" data-name="组 19" clip-path="url(#clip-path)">
    <path id="路径_7" data-name="路径 7" d="M2.155,6.207H15.086V17.931a2.028,2.028,0,0,1-.631,1.463A2.2,2.2,0,0,1,12.931,20H4.31a2.2,2.2,0,0,1-1.524-.606,2.028,2.028,0,0,1-.631-1.463Zm9.339,10V10a.719.719,0,0,0-1.437,0v6.207a.719.719,0,0,0,1.437,0m-4.31,0V10a.719.719,0,0,0-1.437,0v6.207a.719.719,0,0,0,1.437,0M17.241,4.138a.7.7,0,0,1-.718.69H.718A.7.7,0,0,1,0,4.138a1.351,1.351,0,0,1,.421-.976,1.467,1.467,0,0,1,1.016-.4H5.029v-.69A2.113,2.113,0,0,1,7.184,0h2.874a2.113,2.113,0,0,1,2.155,2.069v.69H15.8a1.467,1.467,0,0,1,1.016.4,1.351,1.351,0,0,1,.421.976M10.776,2.759v-.69a.7.7,0,0,0-.718-.69H7.184a.7.7,0,0,0-.718.69v.69Z" fill="#4bacff" fill-rule="evenodd"/>
  </g>
</svg>