<?xml version="1.0" encoding="UTF-8"?>
<!-- Generator: Adobe Illustrator 16.0.0, SVG Export Plug-In . SVG Version: 6.00 Build 0)  -->
<!DOCTYPE svg PUBLIC "-//W3C//DTD SVG 1.1//EN" "http://www.w3.org/Graphics/SVG/1.1/DTD/svg11.dtd">
<svg version="1.1" id="Capa_1" xmlns="http://www.w3.org/2000/svg" xmlns:xlink="http://www.w3.org/1999/xlink" x="0px" y="0px" width="100px" height="100px" viewBox="256 345.676 100 100" enable-background="new 256 345.676 100 100" xml:space="preserve">
<path fill="#0050A4" d="M312.881,383.843l2.232-10.937h-35.792c-12.88,0-23.321,10.442-23.321,23.322v0.472  c0,12.88,10.441,23.321,23.321,23.321h66.618v-36.178H312.881z"/>
<g>
	<ellipse fill="#E83835" cx="279.351" cy="396.463" rx="20.57" ry="20.57"/>
	<g>
		<path fill="#FFFFFF" d="M288.813,414.731c1.811-0.941,3.465-2.141,4.911-3.555H264.98c1.446,1.414,3.101,2.613,4.911,3.555    H288.813z"/>
		<path fill="#FFFFFF" d="M258.786,396.82c0.021,1.212,0.146,2.399,0.368,3.556h40.396c0.222-1.156,0.348-2.344,0.368-3.556H258.786    z"/>
		<path fill="#FFFFFF" d="M260.236,404.071c0.498,1.25,1.115,2.438,1.837,3.555h34.56c0.722-1.117,1.339-2.305,1.837-3.555H260.236z    "/>
		<path fill="#FFFFFF" d="M279.346,389.713v3.554h20.328c-0.191-1.224-0.49-2.411-0.886-3.554H279.346L279.346,389.713z"/>
		<path fill="#FFFFFF" d="M279.346,382.606v3.554h17.813c-0.74-1.278-1.615-2.469-2.604-3.554H279.346z"/>
		<path fill="#FFFFFF" d="M279.346,375.893v3.159h10.964c-3.173-2.001-6.93-3.159-10.958-3.159    C279.35,375.893,279.348,375.893,279.346,375.893z"/>
	</g>
	<path fill="#0050A4" d="M279.346,375.893c-11.357,0.003-20.563,9.211-20.563,20.57c0,0.119,0.002,0.239,0.004,0.357h20.56V375.893   L279.346,375.893z"/>
	<g>
		<polygon fill="#FFFFFF" points="273.298,380.671 272.892,381.495 271.983,381.626 272.641,382.267 272.485,383.174     273.298,382.747 274.112,383.174 273.955,382.267 274.615,381.626 273.704,381.495   "/>
		<polygon fill="#FFFFFF" points="270.654,394 270.247,393.177 269.84,394 268.931,394.133 269.59,394.773 269.433,395.68     270.247,395.252 271.061,395.68 270.905,394.773 271.563,394.133   "/>
		<polygon fill="#FFFFFF" points="268.031,391.499 267.623,390.676 267.217,391.499 266.307,391.632 266.965,392.272     266.809,393.178 267.623,392.75 268.437,393.178 268.281,392.272 268.939,391.632   "/>
		<polygon fill="#FFFFFF" points="268.031,381.495 267.623,380.671 267.217,381.495 266.307,381.626 266.965,382.267     266.809,383.174 267.623,382.747 268.437,383.174 268.281,382.267 268.939,381.626   "/>
		<polygon fill="#FFFFFF" points="266.965,387.271 266.809,388.176 267.623,387.749 268.437,388.176 268.281,387.271     268.939,386.629 268.031,386.497 267.623,385.673 267.217,386.497 266.307,386.629   "/>
		<polygon fill="#FFFFFF" points="273.704,391.499 273.298,390.676 272.892,391.499 271.983,391.632 272.641,392.272     272.485,393.178 273.298,392.75 274.112,393.178 273.955,392.272 274.615,391.632   "/>
		<polygon fill="#FFFFFF" points="276.329,383.996 275.923,383.173 275.516,383.996 274.608,384.128 275.265,384.77 275.11,385.676     275.923,385.248 276.736,385.676 276.581,384.77 277.239,384.128   "/>
		<polygon fill="#FFFFFF" points="276.329,394 275.923,393.177 275.516,394 274.608,394.133 275.265,394.773 275.11,395.68     275.923,395.252 276.736,395.68 276.581,394.773 277.239,394.133   "/>
		<polygon fill="#FFFFFF" points="270.654,388.999 270.247,388.175 269.84,388.999 268.931,389.131 269.59,389.771 269.433,390.677     270.247,390.249 271.061,390.677 270.905,389.771 271.563,389.131   "/>
		<polygon fill="#FFFFFF" points="276.329,388.999 275.923,388.175 275.516,388.999 274.608,389.131 275.265,389.771     275.11,390.677 275.923,390.249 276.736,390.677 276.581,389.771 277.239,389.131   "/>
		<polygon fill="#FFFFFF" points="273.704,386.497 273.298,385.673 272.892,386.497 271.983,386.629 272.641,387.271     272.485,388.176 273.298,387.749 274.112,388.176 273.955,387.271 274.615,386.629   "/>
		<polygon fill="#FFFFFF" points="265.231,394.773 265.889,394.133 264.979,394 264.573,393.177 264.165,394 263.257,394.133     263.914,394.773 263.759,395.68 264.573,395.252 265.384,395.68   "/>
		<path fill="#FFFFFF" d="M259.711,395.68l-0.156-0.906l0.658-0.641l-0.91-0.133l-0.294-0.596c-0.093,0.621-0.157,1.252-0.193,1.89    l0.081-0.042L259.711,395.68z"/>
		<path fill="#FFFFFF" d="M272.641,377.265l-0.156,0.907l0.814-0.428l0.813,0.428l-0.156-0.907l0.66-0.641l-0.466-0.067    c-0.577,0.15-1.144,0.325-1.699,0.523L272.641,377.265z"/>
		<polygon fill="#FFFFFF" points="275.923,378.17 275.516,378.993 274.608,379.125 275.265,379.767 275.11,380.673 275.923,380.246     276.736,380.673 276.581,379.767 277.239,379.125 276.329,378.993   "/>
		<polygon fill="#FFFFFF" points="264.979,388.999 264.573,388.175 264.165,388.999 263.257,389.131 263.914,389.771     263.759,390.677 264.573,390.249 265.384,390.677 265.231,389.771 265.889,389.131   "/>
		<polygon fill="#FFFFFF" points="270.654,383.996 270.247,383.173 269.84,383.996 268.931,384.128 269.59,384.77 269.433,385.676     270.247,385.248 271.061,385.676 270.905,384.77 271.563,384.128   "/>
		<polygon fill="#FFFFFF" points="270.654,378.993 270.247,378.17 269.84,378.993 268.931,379.125 269.59,379.767 269.433,380.673     270.247,380.246 271.061,380.673 270.905,379.767 271.563,379.125   "/>
		<polygon fill="#FFFFFF" points="262.354,391.499 261.948,390.676 261.541,391.499 260.632,391.632 261.289,392.272     261.134,393.178 261.948,392.75 262.761,393.178 262.606,392.272 263.263,391.632   "/>
		<path fill="#FFFFFF" d="M261.289,387.271l-0.154,0.905l0.813-0.427l0.813,0.427l-0.155-0.905l0.658-0.642l-0.91-0.132    l-0.406-0.824l-0.406,0.824l-0.203,0.029c-0.096,0.172-0.188,0.346-0.278,0.521L261.289,387.271z"/>
		<polygon fill="#FFFFFF" points="264.979,383.996 264.573,383.173 264.165,383.996 263.257,384.128 263.914,384.77     263.759,385.676 264.573,385.248 265.384,385.676 265.231,384.77 265.889,384.128   "/>
	</g>
</g>
<g>
	<path d="M321.987,379.019c-0.057,0.314-0.189,0.563-0.404,0.756c-0.213,0.188-0.459,0.279-0.75,0.278   c-0.178,0-0.332-0.044-0.473-0.134l-0.006-0.004c-0.139-0.081-0.232-0.192-0.287-0.338c-0.041-0.107-0.07-0.334,0.014-0.803   l1.031-5.79l-3.125-0.012l-1.047,5.791c-0.082,0.448-0.119,0.836-0.109,1.15c0.01,0.35,0.064,0.668,0.166,0.946   c0.094,0.283,0.238,0.553,0.428,0.804c0.34,0.437,0.756,0.767,1.236,0.982c0.488,0.219,1.045,0.33,1.654,0.33   c0.568,0,1.133-0.101,1.678-0.3c0.547-0.2,1.053-0.492,1.5-0.867c0.477-0.398,0.85-0.842,1.109-1.32   c0.256-0.471,0.443-1.047,0.559-1.714l1.002-5.772l-3.113-0.012L321.987,379.019z"/>
	<path d="M335.596,372.882c-0.164-0.02-0.357-0.029-0.572-0.03c-0.645-0.002-1.27,0.132-1.855,0.397   c-0.592,0.269-1.084,0.644-1.463,1.113c-0.385,0.475-0.631,1.016-0.73,1.606c-0.088,0.522-0.037,1.058,0.154,1.592   c0.076,0.206,0.158,0.397,0.244,0.566c0.146,0.288,0.289,0.556,0.424,0.796c0.24,0.419,0.266,0.652,0.244,0.774   c-0.021,0.139-0.105,0.245-0.262,0.337l-0.004,0.002c-0.182,0.109-0.408,0.165-0.674,0.165c-0.26,0-0.529-0.069-0.805-0.206   l-0.305-0.151l-0.477,2.833l0.152,0.048c0.531,0.167,1.053,0.252,1.545,0.252c0.66,0,1.285-0.124,1.855-0.368   c0.563-0.242,1.037-0.6,1.406-1.06c0.361-0.449,0.592-0.97,0.686-1.547c0.082-0.494,0.055-0.964-0.08-1.396l-0.002-0.005   c-0.096-0.276-0.305-0.716-0.635-1.344c-0.309-0.588-0.344-0.899-0.318-1.057c0.029-0.172,0.115-0.303,0.273-0.411   c0.172-0.114,0.377-0.169,0.623-0.168c0.158,0,0.344,0.036,0.555,0.106l0.285,0.095l0.457-2.788l-0.162-0.043   C335.959,372.94,335.77,372.903,335.596,372.882z"/>
	<path d="M349.018,375.412c-0.09-0.438-0.279-0.853-0.564-1.229c-0.318-0.419-0.727-0.743-1.215-0.965   c-0.484-0.215-1.029-0.325-1.621-0.327c-0.619-0.002-1.219,0.113-1.785,0.345c-0.576,0.235-1.094,0.57-1.535,0.998   c-0.25,0.233-0.471,0.495-0.652,0.777c-0.182,0.281-0.33,0.583-0.439,0.896c-0.113,0.306-0.205,0.676-0.273,1.1l-0.92,5.784   l3.102,0.001l0.398-2.557l1.918,0.002l-0.395,2.555h3.09l0.875-5.767C349.096,376.386,349.104,375.844,349.018,375.412z    M345.928,377.012l-0.105,0.683l-1.912-0.004l0.105-0.684c0.066-0.429,0.15-0.629,0.209-0.721l0.004-0.006   c0.094-0.16,0.225-0.285,0.398-0.384c0.176-0.099,0.354-0.146,0.545-0.146c0.18,0.001,0.336,0.042,0.48,0.127   c0.135,0.092,0.227,0.202,0.277,0.338C345.969,376.33,345.998,376.561,345.928,377.012z"/>
</g>
<g>
	<g>
		<path fill="#DA3734" d="M321.285,378.255c-0.057,0.315-0.189,0.563-0.404,0.756c-0.213,0.188-0.459,0.279-0.75,0.279    c-0.178-0.001-0.332-0.045-0.473-0.135l-0.006-0.004c-0.139-0.081-0.232-0.192-0.289-0.337c-0.039-0.107-0.068-0.335,0.016-0.803    l1.031-5.791l-3.125-0.011l-1.049,5.79c-0.08,0.448-0.117,0.836-0.107,1.151c0.01,0.349,0.064,0.667,0.166,0.946    c0.094,0.282,0.238,0.553,0.428,0.803c0.34,0.437,0.756,0.767,1.236,0.981c0.488,0.22,1.045,0.331,1.654,0.331    c0.566,0,1.131-0.102,1.678-0.301s1.053-0.491,1.5-0.865c0.477-0.398,0.85-0.843,1.109-1.32c0.256-0.471,0.443-1.048,0.559-1.714    l1.002-5.773l-3.113-0.012L321.285,378.255z"/>
		<path fill="#DA3734" d="M334.895,372.12c-0.164-0.02-0.357-0.03-0.572-0.031c-0.645-0.002-1.27,0.132-1.855,0.397    c-0.592,0.27-1.084,0.644-1.463,1.113c-0.385,0.475-0.631,1.016-0.73,1.606c-0.088,0.522-0.037,1.058,0.154,1.592    c0.076,0.206,0.158,0.397,0.244,0.567c0.146,0.288,0.289,0.556,0.424,0.795c0.24,0.419,0.266,0.652,0.244,0.775    c-0.021,0.138-0.105,0.244-0.262,0.336l-0.004,0.002c-0.182,0.11-0.408,0.165-0.674,0.165c-0.26,0-0.529-0.069-0.805-0.205    l-0.305-0.151l-0.479,2.832l0.154,0.048c0.531,0.167,1.053,0.252,1.545,0.252c0.66,0,1.285-0.123,1.855-0.367    c0.563-0.242,1.037-0.599,1.406-1.06c0.361-0.449,0.592-0.969,0.686-1.546c0.082-0.494,0.055-0.964-0.08-1.396l-0.002-0.006    c-0.096-0.276-0.305-0.716-0.635-1.344c-0.309-0.588-0.344-0.898-0.318-1.056c0.029-0.173,0.115-0.304,0.275-0.412    c0.17-0.113,0.375-0.168,0.621-0.168c0.158,0,0.344,0.036,0.555,0.106l0.285,0.095l0.457-2.788l-0.162-0.043    C335.258,372.176,335.069,372.139,334.895,372.12z"/>
		<path fill="#DA3734" d="M348.317,374.648c-0.09-0.438-0.279-0.853-0.564-1.229c-0.318-0.419-0.727-0.743-1.215-0.965    c-0.484-0.215-1.029-0.325-1.621-0.327c-0.619-0.002-1.219,0.114-1.785,0.345c-0.578,0.235-1.094,0.571-1.535,0.998    c-0.25,0.234-0.471,0.496-0.652,0.778c-0.182,0.28-0.33,0.582-0.439,0.896c-0.113,0.306-0.205,0.676-0.273,1.101l-0.92,5.783h3.1    l0.4-2.556l1.918,0.002l-0.395,2.554h3.09l0.875-5.767C348.395,375.623,348.401,375.081,348.317,374.648z M345.227,376.249    l-0.105,0.683l-1.914-0.004l0.107-0.684c0.066-0.428,0.15-0.628,0.209-0.721l0.004-0.006c0.094-0.159,0.225-0.285,0.398-0.383    c0.176-0.1,0.354-0.147,0.545-0.146c0.18,0,0.336,0.042,0.48,0.126c0.135,0.092,0.227,0.202,0.277,0.338    C345.268,375.567,345.297,375.797,345.227,376.249z"/>
	</g>
</g>
<g>
	<path d="M311.571,387.137l-1.305,7.606h4.91l-4.186,5.508h0.859c1.391,0,2.6,0.188,3.594,0.559c0.918,0.375,1.602,0.91,2.029,1.586   c0.43,0.676,0.566,1.457,0.416,2.379c-0.182,1.129-0.732,2.031-1.682,2.762c-0.992,0.738-2.113,1.098-3.42,1.098   c-0.697,0-1.346-0.09-1.924-0.266l-0.004-0.004c-0.52-0.152-1.186-0.48-1.98-0.969l-0.709-0.441l-1.361,7.922l0.248,0.137   c1.039,0.578,2.033,1,2.951,1.246c0.912,0.254,1.953,0.379,3.09,0.379c2.246,0,4.414-0.52,6.447-1.551   c2.023-1.039,3.723-2.457,5.045-4.215c1.316-1.75,2.143-3.699,2.459-5.789c0.209-1.383,0.178-2.641-0.094-3.742v-0.004   c-0.285-1.113-0.807-2.121-1.549-2.992l-0.004-0.004c-0.645-0.742-1.529-1.461-2.633-2.142l7.066-9.063L311.571,387.137   L311.571,387.137z"/>
	<path d="M355.477,393.799c-0.486-1.417-1.285-2.695-2.371-3.799l-0.006-0.005c-1.072-1.06-2.381-1.901-3.887-2.505l-0.004-0.002   c-1.508-0.589-3.213-0.888-5.064-0.888c-2.359,0-4.617,0.515-6.715,1.53c-2.135,1.021-3.918,2.449-5.303,4.252   c-1.406,1.82-2.285,3.843-2.609,6.013c-0.428,2.863,0.189,5.434,1.84,7.633c1.646,2.207,4.006,3.613,7.014,4.16l0.371,0.066   l5.627-8.094h-1.41l-0.051,0.008c-0.008,0.004-0.076,0.012-0.305,0.012c-1.328,0-2.338-0.359-3.088-1.102h-0.002   c-0.756-0.734-1.047-1.625-0.893-2.723c0.143-1.035,0.646-1.899,1.535-2.64c0.881-0.71,1.859-1.055,2.988-1.055   c0.725,0,1.389,0.164,1.979,0.485c0.574,0.323,1.016,0.764,1.313,1.313c0.279,0.546,0.379,1.157,0.293,1.813   c-0.059,0.453-0.223,0.969-0.49,1.535c-0.234,0.5-0.693,1.227-1.367,2.168l-9.777,14.09h10.521l7.15-10.453   c0.941-1.355,1.686-2.637,2.209-3.813l0.004-0.008c0.492-1.145,0.807-2.258,0.934-3.316   C356.115,396.797,355.967,395.223,355.477,393.799z"/>
	<path d="M307.43,396.49c-0.484-1.62-1.328-3.061-2.508-4.284l-0.002-0.002c-1.178-1.197-2.691-2.171-4.501-2.895l-0.008-0.004   c-1.707-0.646-3.658-1.059-5.81-1.228l0.651-1.995h13.97l1.838-10.533h-23.191l-7.148,20.303l0.622-0.03   c0.392-0.02,1.059-0.029,1.982-0.029c4.094,0,7.083,0.551,8.89,1.641c1.758,1.059,2.419,2.609,2.018,4.746   c-0.177,0.938-0.582,1.797-1.205,2.551c-0.645,0.77-1.466,1.363-2.443,1.77h-0.005c-0.978,0.414-2.082,0.621-3.281,0.621   c-1.097,0-2.197-0.164-3.273-0.496c-1.153-0.355-2.505-0.98-4.015-1.852l-0.688-0.398l-2.222,10.887l0.235,0.137   c1.646,0.973,3.2,1.66,4.614,2.047c1.548,0.426,3.264,0.645,5.099,0.645c3.198,0,6.332-0.727,9.311-2.16   c2.993-1.449,5.522-3.438,7.516-5.914c1.983-2.477,3.235-5.176,3.729-8.02c0.35-2.023,0.291-3.875-0.172-5.502L307.43,396.49z"/>
</g>
<g>
	<path fill="#FFFFFF" d="M309.891,385.712l-1.307,7.606h4.912l-4.186,5.507h0.859c1.391,0,2.598,0.191,3.592,0.563   c0.92,0.371,1.602,0.906,2.031,1.582c0.43,0.68,0.564,1.457,0.416,2.379c-0.182,1.129-0.732,2.035-1.682,2.762   c-0.994,0.742-2.113,1.102-3.422,1.102c-0.697,0-1.344-0.09-1.922-0.27l-0.006-0.004c-0.518-0.152-1.184-0.48-1.979-0.969   l-0.711-0.438l-1.358,7.918l0.247,0.137c1.039,0.582,2.033,1,2.951,1.25c0.912,0.25,1.953,0.379,3.09,0.379   c2.244,0,4.414-0.523,6.445-1.551c2.025-1.039,3.723-2.461,5.047-4.219c1.316-1.75,2.143-3.699,2.459-5.785   c0.209-1.383,0.176-2.645-0.094-3.742l-0.002-0.004c-0.285-1.117-0.805-2.125-1.549-2.994l-0.002-0.003   c-0.646-0.743-1.531-1.463-2.633-2.144l7.064-9.063L309.891,385.712L309.891,385.712L309.891,385.712z"/>
	<path fill="#FFFFFF" d="M353.797,392.374c-0.486-1.417-1.285-2.694-2.373-3.799l-0.004-0.005c-1.072-1.06-2.381-1.901-3.887-2.505   l-0.004-0.001c-1.508-0.59-3.213-0.889-5.064-0.889c-2.359,0-4.617,0.515-6.715,1.53c-2.135,1.021-3.918,2.45-5.303,4.252   c-1.406,1.82-2.285,3.843-2.609,6.014c-0.428,2.865,0.189,5.436,1.84,7.631c1.646,2.211,4.006,3.613,7.014,4.16l0.371,0.07   l5.627-8.098h-1.41l-0.053,0.012c-0.006,0-0.074,0.012-0.305,0.012c-1.326,0-2.336-0.363-3.086-1.102l-0.002-0.004   c-0.756-0.734-1.047-1.625-0.895-2.723c0.145-1.035,0.648-1.898,1.537-2.639c0.881-0.71,1.859-1.054,2.988-1.054   c0.725,0,1.389,0.163,1.979,0.485c0.574,0.322,1.016,0.764,1.313,1.313c0.279,0.546,0.379,1.156,0.293,1.813   c-0.059,0.452-0.223,0.968-0.49,1.534c-0.234,0.5-0.693,1.23-1.367,2.172l-9.779,14.086h10.523l7.148-10.453   c0.943-1.355,1.686-2.637,2.211-3.813l0.002-0.008c0.494-1.141,0.809-2.258,0.936-3.316   C354.434,395.372,354.287,393.799,353.797,392.374z"/>
	<path fill="#FFFFFF" d="M305.75,395.065c-0.484-1.62-1.329-3.061-2.508-4.283l-0.003-0.003c-1.178-1.197-2.691-2.17-4.5-2.895   l-0.008-0.003c-1.707-0.647-3.659-1.06-5.81-1.229l0.651-1.995h13.97l1.838-10.533h-23.192l-7.148,20.304l0.623-0.031   c0.391-0.019,1.058-0.029,1.982-0.029c4.093,0,7.083,0.551,8.889,1.64c1.758,1.059,2.42,2.609,2.018,4.746   c-0.177,0.941-0.582,1.801-1.204,2.551c-0.645,0.77-1.467,1.363-2.443,1.77H288.9c-0.978,0.414-2.082,0.625-3.282,0.625   c-1.096,0-2.197-0.168-3.272-0.5c-1.153-0.355-2.505-0.977-4.015-1.852l-0.688-0.398l-2.222,10.887l0.235,0.141   c1.646,0.973,3.199,1.66,4.613,2.043c1.548,0.43,3.265,0.645,5.1,0.645c3.197,0,6.332-0.727,9.31-2.16   c2.994-1.445,5.522-3.438,7.516-5.91c1.984-2.48,3.236-5.18,3.729-8.023c0.352-2.023,0.293-3.874-0.171-5.501L305.75,395.065z"/>
</g>
</svg>