<?xml version="1.0" encoding="utf-8"?>
<!-- Generator: Adobe Illustrator 24.3.0, SVG Export Plug-In . SVG Version: 6.00 Build 0)  -->
<svg version="1.1" id="圖層_1" xmlns="http://www.w3.org/2000/svg" xmlns:xlink="http://www.w3.org/1999/xlink" x="0px" y="0px"
	 viewBox="0 0 50 50" style="enable-background:new 0 0 50 50;" xml:space="preserve">
<style type="text/css">
	.st0{fill:#7D7D7D;}
</style>
<g id="btn_showForm_20210930" transform="translate(0 0)">
	<path id="路径_1" class="st0" d="M49.5,15.3L35.3,0.5c-0.5-0.5-1.2-0.6-1.8-0.4c-0.6,0.3-1,0.9-1,1.5v7.1h-0.6
		c-11.8,0-21.4,9.6-21.4,21.4v3.3c0,0.8,0.5,1.4,1.3,1.6c0.1,0,0.2,0,0.4,0c0.6,0,1.2-0.4,1.5-0.9c3-6.1,9.3-10,16.2-10h2.6v7.1
		c0,0.7,0.4,1.3,1,1.5c0.6,0.3,1.3,0.1,1.8-0.4l14.3-14.8C50.2,17,50.2,15.9,49.5,15.3z"/>
	<path id="路径_2" class="st0" d="M43.8,50H6.3C2.8,50,0,47.3,0,43.8l0,0V14.9c0-3.4,2.8-6.2,6.3-6.2h6.3c1.1,0,2.1,0.9,2.1,2.1
		s-0.9,2.1-2.1,2.1l0,0H6.3c-1.1,0-2.1,0.9-2.1,2.1v28.9c0,1.1,0.9,2.1,2.1,2.1h37.5c1.1,0,2.1-0.9,2.1-2.1V27.3
		c0-1.1,0.9-2.1,2.1-2.1s2.1,0.9,2.1,2.1v16.5C50,47.2,47.2,50,43.8,50C43.8,50,43.8,50,43.8,50z"/>
</g>
</svg>
