<?xml version="1.0" encoding="UTF-8"?>
<!-- Generator: Adobe Illustrator 22.0.1, SVG Export Plug-In . SVG Version: 6.00 Build 0)  -->
<svg version="1.1" id="圖層_2_1_" xmlns="http://www.w3.org/2000/svg" xmlns:xlink="http://www.w3.org/1999/xlink" x="0px" y="0px" viewBox="0 0 50 100" width="16px" height="32px" style="enable-background:new 0 0 50 100;" xml:space="preserve">
<style type="text/css">
	.st0{fill:#FFFFFF;}
	.st1{fill:#83BFFC;}
</style>
<g>
	<path class="st0" d="M23.3,38.2h3.9v-3.6c2.1-0.2,3.8-0.9,5-2c1.3-1.1,2-2.6,2-4.2c0-1.3-0.6-2.5-1.6-3.3c-1-1-2.7-1.6-4.8-2.1   c-0.6-0.1-1.4-0.3-2.6-0.5c-1.9-0.3-3.1-0.7-3.7-1c-0.3-0.2-0.5-0.5-0.7-0.8c-0.1-0.3-0.2-0.6-0.2-0.9c0-0.9,0.4-1.6,1.1-2.1   c0.8-0.6,1.8-0.8,3.1-0.8c1.2,0,2.2,0.3,2.9,0.8c0.8,0.5,1.2,1.1,1.2,1.9h4.2c-0.1-1.4-0.8-2.7-1.9-3.5c-1.1-1-2.7-1.4-4.5-1.6v-3   h-3.9v3c-2.1,0.3-3.7,0.9-4.9,1.9c-1.2,1-1.8,2.3-1.8,3.8c0,1.4,0.7,2.5,1.9,3.3c1.2,0.9,3.2,1.5,5.8,2c0.2,0,0.5,0.1,0.8,0.1   c2.1,0.3,3.5,0.9,4.2,1.6c0.2,0.2,0.4,0.5,0.5,0.8s0.2,0.7,0.2,1c0,1-0.5,1.8-1.3,2.5c-0.9,0.6-2.1,1-3.6,1c-1.6,0-2.9-0.3-3.8-0.9   s-1.3-1.4-1.4-2.6h-4c0,1.7,0.7,3,2.1,4.2c1.3,1,3.2,1.7,5.5,1.9v3.1H23.3L23.3,38.2z"/>
	<path class="st0" d="M12.5,11C18.2,6,26.2,4.9,33,8.3l1.1-2.4C26.4,2,17.3,3.2,10.8,9c-7.9,7-9.2,18.7-3.6,27.3L3,40l9.6,0.9   l0.3-9.6l-3.7,3.3C4.4,27.1,5.7,17.1,12.5,11z"/>
	<path class="st0" d="M47,10.2l-9.6-0.9l-0.2,9.6l3.7-3.3c2,3.2,3,6.9,2.8,10.8c-0.3,4.9-2.5,9.4-6.2,12.7   c-4.9,4.4-11.9,5.8-18.1,3.7l-0.9,2.5c2.2,0.7,4.4,1,6.6,1c5.1,0,10.2-1.8,14.1-5.3c4.2-3.7,6.7-8.9,7-14.5c0.3-4.6-1-9-3.4-12.7   L47,10.2z"/>
</g>
<g>
	<path class="st1" d="M23.3,88.2h3.9v-3.6c2.1-0.2,3.8-0.9,5-2c1.3-1.1,2-2.6,2-4.2c0-1.3-0.6-2.5-1.6-3.3c-1-1-2.7-1.6-4.8-2.1   c-0.6-0.1-1.4-0.3-2.6-0.5c-1.9-0.3-3.1-0.7-3.7-1c-0.3-0.2-0.5-0.5-0.7-0.8c-0.1-0.3-0.2-0.6-0.2-0.9c0-0.9,0.4-1.6,1.1-2.1   c0.8-0.6,1.8-0.8,3.1-0.8c1.2,0,2.2,0.3,2.9,0.8c0.8,0.5,1.2,1.1,1.2,1.9h4.2c-0.1-1.4-0.8-2.7-1.9-3.5c-1.1-1-2.7-1.4-4.5-1.6v-3   h-3.9v3c-2.1,0.3-3.7,0.9-4.9,1.9c-1.2,1-1.8,2.3-1.8,3.8c0,1.4,0.7,2.5,1.9,3.3c1.2,0.9,3.2,1.5,5.8,2c0.2,0,0.5,0.1,0.8,0.1   c2.1,0.3,3.5,0.9,4.2,1.6c0.2,0.2,0.4,0.5,0.5,0.8s0.2,0.7,0.2,1c0,1-0.5,1.8-1.3,2.5c-0.9,0.6-2.1,1-3.6,1c-1.6,0-2.9-0.3-3.8-0.9   s-1.3-1.4-1.4-2.6h-4c0,1.7,0.7,3,2.1,4.2c1.3,1,3.2,1.7,5.5,1.9v3.1L23.3,88.2L23.3,88.2z"/>
	<path class="st1" d="M12.5,61c5.7-5,13.7-6.1,20.5-2.8l1.1-2.4C26.4,52,17.3,53.2,10.8,59c-7.9,7-9.2,18.7-3.6,27.3L3,90l9.6,0.9   l0.3-9.6l-3.7,3.3C4.4,77.1,5.7,67.1,12.5,61z"/>
	<path class="st1" d="M47,60.2l-9.6-0.9l-0.2,9.6l3.7-3.3c2,3.2,3,6.9,2.8,10.8c-0.3,4.9-2.5,9.4-6.2,12.7   c-4.9,4.4-11.9,5.8-18.1,3.7l-0.9,2.5c2.2,0.7,4.4,1,6.6,1c5.1,0,10.2-1.8,14.1-5.3c4.2-3.7,6.7-8.9,7-14.5c0.3-4.6-1-9-3.4-12.7   L47,60.2z"/>
</g>
</svg>