<?xml version="1.0" encoding="UTF-8"?>
<!-- Generator: Adobe Illustrator 26.0.3, SVG Export Plug-In . SVG Version: 6.00 Build 0)  -->
<svg version="1.1" id="圖層_1" xmlns="http://www.w3.org/2000/svg" xmlns:xlink="http://www.w3.org/1999/xlink" x="0px" y="0px" viewBox="0 0 84 84" style="enable-background:new 0 0 84 84;" xml:space="preserve">
<style type="text/css">
	.st0{fill:url(#SVGID_1_);}
	.st1{fill:#FFFFFF;}
</style>
<linearGradient id="SVGID_1_" gradientUnits="userSpaceOnUse" x1="2.1009" y1="2.53" x2="83.5283" y2="82.8558" gradientTransform="matrix(1 0 0 -1 0 83.89)">
	<stop offset="0" style="stop-color:#083978"/>
	<stop offset="0.7506" style="stop-color:#0A8BD4"/>
</linearGradient>
<path class="st0" d="M75.9,84H8.1C3.6,84,0,80.4,0,75.9V8.1C0,3.6,3.6,0,8.1,0h67.8C80.4,0,84,3.6,84,8.1v67.8  C84,80.4,80.4,84,75.9,84z"/>
<path class="st1" d="M59.4,30.5H32l0,0c-0.1,0-0.1,0-0.2,0c-2.2,0-4.1-1.8-4.1-4.1s1.8-4.1,4.1-4.1c0.1,0,0.1,0,0.2,0l0,0  c8.8,0.1,39.5,0,39.5,0L78.9,0L66,0l-2.7,8.9H25c0,0-13.5,3.4-13.3,18.1C12,41.7,24.2,43.5,24.2,43.5h29.2l0,0c0,0,0,0,0.1,0  c2.5,0,4.6,2.1,4.6,4.6s-2.1,4.6-4.6,4.6l0,0l0,0c-11.4,0.5-39.8,0-39.8,0L3.2,84l14.5,0l5.6-17.9h38c0,0,13.5-3.6,12.4-19.3  C72.5,31.2,59.4,30.5,59.4,30.5z"/>
</svg>