<svg xmlns="http://www.w3.org/2000/svg" width="33.334" height="33.333" viewBox="0 0 33.334 33.333">
  <path id="路径_1" data-name="路径 1" d="M279.978,13l-4.809,4.792,4.809,4.792a1.694,1.694,0,0,1-2.4,2.4l-4.792-4.809L268,24.977a1.694,1.694,0,1,1-2.4-2.4l4.809-4.792L265.6,13a1.693,1.693,0,0,1,0-2.4,1.695,1.695,0,0,1,2.4,0l4.792,4.809,4.792-4.809a1.695,1.695,0,0,1,2.4,0,1.693,1.693,0,0,1,0,2.4Zm4.742,16.722a16.874,16.874,0,0,1-23.86-23.86,16.874,16.874,0,0,1,23.86,23.86ZM282.34,8.238a13.405,13.405,0,1,0,2.956,4.375A13.5,13.5,0,0,0,282.34,8.238Z" transform="translate(-256.123 -1.122)" fill="#fff"/>
</svg>