<?xml version="1.0" encoding="utf-8"?>
<!-- Generator: Adobe Illustrator 16.0.0, SVG Export Plug-In . SVG Version: 6.00 Build 0)  -->
<!DOCTYPE svg PUBLIC "-//W3C//DTD SVG 1.1//EN" "http://www.w3.org/Graphics/SVG/1.1/DTD/svg11.dtd">
<svg version="1.1" id="圖層_1" xmlns="http://www.w3.org/2000/svg" xmlns:xlink="http://www.w3.org/1999/xlink" x="0px" y="0px"
	 width="45px" height="45px" viewBox="0 0 45 45" enable-background="new 0 0 45 45" xml:space="preserve">
<circle display="none" fill="#00993E" cx="22.5" cy="22.5" r="22.5"/>
<g display="none">
	<g display="inline">
		<path fill="#FFFFFF" d="M22.5,33.965c-2.239,0-4.071-0.874-5.445-2.599c-1.365-1.715-2.028-4.627-2.028-8.903
			c0-4.14,0.746-7.181,2.217-9.041c1.257-1.584,3.025-2.387,5.255-2.387c2.231,0,4.004,0.813,5.271,2.417
			c1.461,1.839,2.202,4.886,2.202,9.055c0,4.16-0.746,7.211-2.217,9.071C26.499,33.162,24.73,33.965,22.5,33.965z M22.5,15.449
			c-0.383,0-0.716,0.119-1.018,0.364c-0.3,0.244-0.556,0.744-0.74,1.445c-0.271,1.02-0.409,2.785-0.409,5.25
			s0.123,4.167,0.364,5.062c0.28,1.039,0.584,1.457,0.791,1.624c0.296,0.24,0.627,0.357,1.011,0.357s0.717-0.119,1.018-0.364
			c0.301-0.244,0.557-0.743,0.74-1.444c0.271-1.01,0.408-2.771,0.408-5.235c0-2.464-0.122-4.167-0.363-5.063
			c-0.28-1.04-0.587-1.462-0.795-1.634C23.212,15.567,22.882,15.449,22.5,15.449z"/>
		<path d="M22.5,11.536c2.08,0,3.706,0.742,4.878,2.227c1.396,1.758,2.095,4.673,2.095,8.745c0,4.063-0.703,6.983-2.109,8.76
			c-1.162,1.465-2.783,2.197-4.863,2.197c-2.09,0-3.774-0.805-5.054-2.41c-1.279-1.607-1.919-4.471-1.919-8.591
			c0-4.043,0.703-6.953,2.109-8.73C18.799,12.268,20.42,11.536,22.5,11.536 M22.5,30.051c0.498,0,0.942-0.158,1.333-0.477
			c0.391-0.316,0.693-0.885,0.908-1.705c0.283-1.055,0.425-2.842,0.425-5.362c0-2.52-0.127-4.25-0.381-5.193
			s-0.574-1.572-0.959-1.89c-0.387-0.317-0.828-0.476-1.326-0.476s-0.942,0.159-1.333,0.476s-0.693,0.886-0.908,1.707
			c-0.283,1.064-0.425,2.856-0.425,5.376c0,2.52,0.127,4.25,0.381,5.192c0.254,0.943,0.573,1.57,0.959,1.883
			S22.002,30.051,22.5,30.051 M22.5,10.536c-2.391,0-4.291,0.867-5.646,2.576c-1.565,1.979-2.326,5.037-2.326,9.352
			c0,4.394,0.699,7.408,2.137,9.214c1.474,1.85,3.437,2.787,5.836,2.787c2.391,0,4.291-0.866,5.646-2.576
			c1.565-1.979,2.326-5.047,2.326-9.381c0-4.345-0.756-7.409-2.312-9.367C26.797,11.413,24.892,10.536,22.5,10.536L22.5,10.536z
			 M22.5,29.051c-0.269,0-0.49-0.078-0.697-0.246c-0.077-0.062-0.348-0.344-0.623-1.365c-0.158-0.587-0.347-1.918-0.347-4.932
			c0-2.421,0.132-4.143,0.391-5.119c0.217-0.829,0.473-1.106,0.572-1.188c0.212-0.172,0.435-0.252,0.703-0.252
			c0.265,0,0.485,0.079,0.691,0.249c0.076,0.063,0.353,0.352,0.628,1.377c0.158,0.586,0.347,1.918,0.347,4.933
			c0,2.42-0.132,4.137-0.391,5.102c-0.218,0.831-0.473,1.107-0.572,1.188C22.991,28.971,22.768,29.051,22.5,29.051L22.5,29.051z"/>
	</g>
</g>
<circle display="none" fill="#F39800" cx="22.5" cy="22.5" r="22.5"/>
<g display="none">
	<g display="inline">
		<path fill="#FFFFFF" d="M21.601,33.781v-14.92c-1.364,1.09-2.928,1.93-4.661,2.502l-0.657,0.217v-4.789l0.344-0.113
			c1.015-0.332,2.142-0.978,3.35-1.918c1.178-0.917,1.995-1.998,2.429-3.209l0.119-0.332h4.191v22.563H21.601z"/>
		<path d="M26.217,11.719v21.563h-4.116V17.769c-1.504,1.406-3.276,2.446-5.317,3.12v-3.735c1.074-0.352,2.241-1.018,3.501-1.999
			s2.124-2.127,2.593-3.436H26.217 M27.217,10.719h-1h-3.34h-0.704l-0.237,0.663c-0.402,1.122-1.164,2.125-2.266,2.984
			c-1.162,0.905-2.237,1.523-3.197,1.838l-0.689,0.225v0.725v3.735v1.383l1.313-0.434c1.456-0.48,2.795-1.144,4.004-1.981v13.424v1
			h1h4.116h1v-1V11.719V10.719L27.217,10.719z"/>
	</g>
</g>
<circle display="none" fill="#009FE8" cx="22.5" cy="22.5" r="22.5"/>
<g display="none">
	<g display="inline">
		<path fill="#FFFFFF" d="M14.729,33.781l0.06-0.554c0.163-1.511,0.66-2.962,1.475-4.313c0.813-1.347,2.356-3.066,4.717-5.257
			c1.821-1.697,2.945-2.852,3.341-3.431c0.505-0.758,0.763-1.512,0.763-2.238c0-0.786-0.194-1.362-0.594-1.763
			c-0.4-0.399-0.953-0.593-1.69-0.593c-0.726,0-1.28,0.205-1.694,0.626c-0.419,0.427-0.667,1.188-0.737,2.26l-0.034,0.517
			l-5.118-0.512l0.054-0.501c0.258-2.396,1.097-4.153,2.493-5.221c1.372-1.05,3.101-1.583,5.138-1.583
			c2.242,0,4.038,0.623,5.338,1.85c1.31,1.235,1.974,2.792,1.974,4.626c0,1.024-0.187,2.015-0.555,2.946
			c-0.364,0.916-0.943,1.882-1.72,2.871c-0.52,0.662-1.42,1.578-2.751,2.799c-1.28,1.175-2.1,1.961-2.433,2.338
			c-0.092,0.104-0.18,0.208-0.263,0.311h7.721v4.822H14.729z"/>
		<path d="M22.903,11.719c2.119,0,3.785,0.571,4.996,1.714s1.816,2.563,1.816,4.263c0,0.967-0.174,1.888-0.52,2.762
			c-0.348,0.874-0.896,1.789-1.648,2.746c-0.498,0.635-1.396,1.548-2.695,2.739s-2.123,1.983-2.469,2.374s-0.627,0.771-0.842,1.143
			h8.174v3.822H15.286c0.156-1.445,0.625-2.814,1.406-4.108s2.324-3.011,4.629-5.149c1.855-1.729,2.994-2.9,3.414-3.516
			c0.566-0.85,0.85-1.689,0.85-2.52c0-0.918-0.248-1.623-0.74-2.116c-0.494-0.493-1.174-0.74-2.043-0.74
			c-0.859,0-1.543,0.259-2.051,0.776s-0.801,1.377-0.879,2.578l-4.102-0.41c0.244-2.266,1.011-3.892,2.3-4.878
			S20.969,11.719,22.903,11.719 M22.903,10.719c-2.149,0-3.98,0.567-5.442,1.685c-1.509,1.155-2.413,3.027-2.686,5.565l-0.108,1.001
			l1.002,0.101l4.102,0.41l1.03,0.103l0.067-1.033c0.077-1.183,0.366-1.709,0.595-1.943c0.314-0.321,0.752-0.477,1.337-0.477
			c0.597,0,1.035,0.146,1.337,0.448c0.3,0.3,0.446,0.762,0.446,1.408c0,0.625-0.229,1.286-0.682,1.965
			c-0.252,0.369-1.028,1.256-3.263,3.339c-2.394,2.221-3.965,3.977-4.803,5.364c-0.854,1.413-1.373,2.934-1.544,4.518l-0.12,1.107
			h1.114h14.429h1v-1v-3.822v-1h-1h-6.079c0.373-0.367,0.962-0.927,1.892-1.779c1.352-1.24,2.27-2.175,2.807-2.859
			c0.806-1.026,1.408-2.034,1.79-2.994c0.393-0.991,0.591-2.044,0.591-3.131c0-1.978-0.717-3.656-2.13-4.99
			C27.188,11.387,25.276,10.719,22.903,10.719L22.903,10.719z"/>
	</g>
</g>
<circle display="none" fill="#5B5B5B" cx="22.5" cy="22.5" r="22.5"/>
<g display="none">
	<g display="inline">
		<path fill="#FFFFFF" d="M22.427,33.965c-2.059,0-3.795-0.606-5.163-1.801c-1.37-1.198-2.176-2.781-2.394-4.707l-0.056-0.493
			l4.972-0.604l0.062,0.494c0.112,0.896,0.407,1.58,0.876,2.033c0.463,0.446,1.011,0.664,1.674,0.664
			c0.708,0,1.288-0.262,1.774-0.802c0.5-0.555,0.743-1.298,0.743-2.272c0-0.914-0.229-1.608-0.703-2.122
			c-0.462-0.503-1.008-0.747-1.668-0.747c-0.479,0-1.07,0.098-1.755,0.289l-0.732,0.205l0.617-4.553l0.614,0.014
			c0.896,0,1.583-0.203,2.041-0.604c0.477-0.417,0.708-0.962,0.708-1.667c0-0.59-0.163-1.04-0.498-1.375s-0.78-0.498-1.36-0.498
			c-0.572,0-1.047,0.193-1.452,0.589c-0.412,0.404-0.668,1.022-0.762,1.839l-0.06,0.524l-4.823-0.82l0.103-0.506
			c0.276-1.359,0.704-2.468,1.271-3.295c0.581-0.847,1.397-1.52,2.428-2.001c1.016-0.474,2.164-0.714,3.413-0.714
			c2.155,0,3.913,0.703,5.227,2.09c1.092,1.145,1.646,2.463,1.646,3.918c0,1.753-0.807,3.215-2.401,4.358
			c0.854,0.354,1.574,0.895,2.151,1.613c0.808,1.007,1.217,2.23,1.217,3.639c0,2.018-0.746,3.761-2.219,5.181
			C26.448,33.247,24.602,33.965,22.427,33.965z"/>
		<path d="M22.295,11.535c2.021,0,3.643,0.645,4.863,1.934c1.006,1.055,1.509,2.246,1.509,3.574c0,1.885-1.03,3.389-3.091,4.512
			c1.23,0.264,2.214,0.854,2.951,1.772c0.737,0.919,1.106,2.026,1.106,3.325c0,1.885-0.688,3.492-2.065,4.82
			s-3.091,1.992-5.142,1.992c-1.943,0-3.555-0.56-4.834-1.678s-2.021-2.58-2.227-4.387l3.984-0.484
			c0.127,1.016,0.469,1.793,1.025,2.33s1.23,0.805,2.021,0.805c0.85,0,1.564-0.322,2.146-0.967s0.872-1.514,0.872-2.607
			c0-1.035-0.278-1.855-0.835-2.461s-1.235-0.908-2.036-0.908c-0.527,0-1.157,0.103-1.89,0.308l0.454-3.354
			c0.06,0.001,0.12,0.002,0.179,0.002c1.026,0,1.815-0.242,2.37-0.727c0.586-0.513,0.879-1.194,0.879-2.044
			c0-0.723-0.215-1.299-0.645-1.729s-1.001-0.645-1.714-0.645c-0.703,0-1.304,0.244-1.802,0.732s-0.801,1.201-0.908,2.139
			l-3.794-0.645c0.264-1.299,0.661-2.336,1.193-3.112s1.275-1.387,2.227-1.831C20.047,11.758,21.113,11.535,22.295,11.535
			 M22.295,10.535c-1.322,0-2.541,0.256-3.624,0.761c-1.113,0.52-1.998,1.25-2.629,2.172c-0.605,0.883-1.06,2.054-1.349,3.479
			l-0.206,1.012l1.018,0.173l3.794,0.645l1.041,0.177l0.12-1.049c0.08-0.699,0.287-1.217,0.615-1.539
			c0.311-0.304,0.661-0.446,1.102-0.446c0.587,0,0.855,0.201,1.007,0.352s0.352,0.421,0.352,1.021c0,0.56-0.171,0.971-0.538,1.292
			c-0.363,0.318-0.939,0.479-1.711,0.479l-0.152-0.002l-0.897-0.023l-0.12,0.889l-0.454,3.355l-0.204,1.507l1.464-0.41
			c0.641-0.18,1.187-0.271,1.62-0.271c0.52,0,0.933,0.186,1.3,0.585c0.385,0.418,0.571,1.002,0.571,1.784
			c0,0.845-0.201,1.479-0.615,1.938c-0.391,0.435-0.837,0.637-1.402,0.637c-0.535,0-0.957-0.167-1.327-0.524
			c-0.385-0.372-0.63-0.955-0.728-1.734l-0.124-0.989l-0.989,0.12l-3.984,0.484l-0.985,0.12l0.112,0.985
			c0.233,2.054,1.095,3.745,2.562,5.027c1.461,1.277,3.309,1.925,5.492,1.925c2.309,0,4.272-0.765,5.836-2.272
			c1.573-1.518,2.371-3.382,2.371-5.54c0-1.524-0.446-2.854-1.326-3.951c-0.458-0.57-0.998-1.037-1.614-1.397
			c1.312-1.158,1.974-2.585,1.974-4.261c0-1.587-0.601-3.022-1.785-4.264C26.473,11.291,24.593,10.535,22.295,10.535L22.295,10.535z
			"/>
	</g>
</g>
<circle display="none" fill="#E34D05" cx="22.5" cy="22.5" r="22.5"/>
<g display="none">
	<g display="inline">
		<path fill="#FFFFFF" d="M23.069,33.781v-4.32H14.28v-4.258l9.553-13.984h4.221v13.623h2.666v4.619h-2.666v4.32H23.069z
			 M23.069,24.842v-5.2l-3.498,5.2H23.069z"/>
		<path d="M27.554,11.719v13.623h2.666v3.619h-2.666v4.32h-3.984v-4.32H14.78v-3.604l9.316-13.639H27.554 M18.633,25.342h4.937
			v-7.339L18.633,25.342 M28.554,10.719h-1h-3.457h-0.528l-0.298,0.436l-9.316,13.638l-0.174,0.256v0.309v3.604v1h1h7.789v3.32v1h1
			h3.984h1v-1v-3.32h1.666h1v-1v-3.619v-1h-1h-1.666V11.719V10.719L28.554,10.719z M20.511,24.342l2.059-3.061v3.061H20.511
			L20.511,24.342z"/>
	</g>
</g>
<circle display="none" fill="#069EB2" cx="22.5" cy="22.5" r="22.5"/>
<g display="none">
	<g display="inline">
		<path fill="#FFFFFF" d="M22.368,33.774c-2.095,0-3.835-0.578-5.173-1.717c-1.341-1.142-2.152-2.691-2.413-4.604l-0.069-0.512
			l5.101-0.529l0.062,0.485c0.103,0.816,0.393,1.439,0.887,1.903c0.484,0.455,1.023,0.677,1.649,0.677
			c0.713,0,1.302-0.285,1.802-0.871c0.514-0.603,0.774-1.555,0.774-2.832c0-1.186-0.256-2.071-0.759-2.633
			c-0.497-0.554-1.129-0.823-1.935-0.823c-1.042,0-1.96,0.458-2.807,1.401l-0.179,0.199l-4.121-0.596l2.283-12.098H29.27v4.853
			h-7.844l-0.412,2.33c0.708-0.246,1.432-0.371,2.16-0.371c1.959,0,3.644,0.722,5.005,2.146c1.355,1.418,2.043,3.274,2.043,5.517
			c0,1.869-0.551,3.562-1.636,5.029C27.097,32.75,25.005,33.774,22.368,33.774z"/>
		<path d="M28.77,11.726v3.853h-7.764l-0.645,3.647c0.918-0.459,1.855-0.688,2.813-0.688c1.826,0,3.374,0.664,4.644,1.992
			s1.904,3.052,1.904,5.171c0,1.768-0.513,3.346-1.538,4.732c-1.396,1.895-3.335,2.842-5.815,2.842
			c-1.982,0-3.599-0.533-4.849-1.598s-1.997-2.494-2.241-4.291l4.102-0.426c0.117,0.928,0.464,1.663,1.04,2.205
			s1.24,0.813,1.992,0.813c0.859,0,1.587-0.349,2.183-1.047s0.894-1.75,0.894-3.156c0-1.318-0.296-2.308-0.887-2.967
			s-1.359-0.989-2.307-0.989c-1.182,0-2.241,0.522-3.179,1.567l-3.34-0.482l2.109-11.178H28.77 M29.77,10.726h-1H17.886h-0.829
			l-0.153,0.814l-2.109,11.178L14.6,23.744l1.033,0.148l3.34,0.482l0.53,0.077l0.357-0.398c0.746-0.831,1.542-1.235,2.435-1.235
			c0.664,0,1.16,0.209,1.562,0.656c0.419,0.468,0.632,1.241,0.632,2.3c0,1.154-0.22,1.998-0.654,2.507
			c-0.405,0.476-0.857,0.696-1.422,0.696c-0.5,0-0.915-0.172-1.307-0.541c-0.405-0.381-0.645-0.905-0.733-1.602l-0.123-0.971
			l-0.973,0.101l-4.102,0.426l-1.027,0.107l0.139,1.022c0.277,2.039,1.146,3.693,2.583,4.918c1.431,1.218,3.28,1.836,5.497,1.836
			c2.804,0,5.031-1.093,6.62-3.248c1.15-1.556,1.733-3.348,1.733-5.326c0-2.375-0.734-4.348-2.182-5.862
			c-1.459-1.527-3.265-2.301-5.366-2.301c-0.513,0-1.024,0.057-1.529,0.171l0.2-1.13h6.925h1v-1v-3.853V10.726L29.77,10.726z"/>
	</g>
</g>
<circle display="none" fill="#7E308D" cx="22.5" cy="22.5" r="22.5"/>
<g display="none">
	<g display="inline">
		<path fill="#FFFFFF" d="M22.771,33.965c-2.313,0-4.242-0.911-5.731-2.708c-1.466-1.769-2.21-4.663-2.21-8.603
			c0-4.039,0.773-7.01,2.299-8.833c1.548-1.849,3.584-2.787,6.053-2.787c1.745,0,3.217,0.501,4.374,1.49
			c1.156,0.987,1.901,2.425,2.213,4.273l0.088,0.522l-5.003,0.552l-0.059-0.492c-0.083-0.698-0.289-1.207-0.61-1.514
			c-0.316-0.301-0.727-0.448-1.252-0.448c-0.711,0-1.303,0.319-1.809,0.977c-0.308,0.401-0.693,1.3-0.919,3.305
			c0.927-0.697,2.002-1.048,3.212-1.048c1.854,0,3.462,0.713,4.781,2.121c1.309,1.399,1.973,3.219,1.973,5.41
			c0,2.322-0.698,4.219-2.075,5.638C26.714,33.243,24.923,33.965,22.771,33.965z M22.771,22.686c-0.647,0-1.181,0.249-1.632,0.761
			c-0.461,0.522-0.695,1.336-0.695,2.415c0,1.211,0.271,2.145,0.805,2.775c0.52,0.615,1.085,0.914,1.728,0.914
			c0.615,0,1.113-0.234,1.524-0.717c0.427-0.5,0.643-1.377,0.643-2.605c0-1.27-0.236-2.193-0.703-2.747
			C23.989,22.946,23.443,22.686,22.771,22.686z"/>
		<path d="M23.182,11.535c1.631,0,2.98,0.457,4.049,1.37c1.07,0.913,1.752,2.238,2.045,3.977l-3.984,0.439
			c-0.098-0.82-0.352-1.426-0.762-1.816s-0.943-0.586-1.597-0.586c-0.869,0-1.604,0.391-2.205,1.172
			c-0.6,0.781-0.979,2.407-1.135,4.878c1.025-1.211,2.3-1.816,3.824-1.816c1.719,0,3.189,0.654,4.416,1.963
			c1.225,1.309,1.838,2.998,1.838,5.068c0,2.197-0.645,3.961-1.934,5.289s-2.943,1.992-4.965,1.992c-2.168,0-3.95-0.843-5.347-2.527
			s-2.095-4.445-2.095-8.283c0-3.937,0.728-6.773,2.183-8.512S20.857,11.535,23.182,11.535 M22.976,30.051
			c0.762,0,1.397-0.297,1.905-0.893s0.762-1.572,0.762-2.93c0-1.396-0.273-2.42-0.82-3.069s-1.23-0.974-2.051-0.974
			c-0.791,0-1.46,0.31-2.007,0.93s-0.82,1.535-0.82,2.746c0,1.338,0.308,2.371,0.923,3.099S22.185,30.051,22.976,30.051
			 M23.182,10.535c-2.624,0-4.789,0.998-6.436,2.965c-1.626,1.942-2.416,4.937-2.416,9.154c0,4.116,0.76,7.034,2.325,8.922
			c1.589,1.917,3.647,2.889,6.117,2.889c2.292,0,4.205-0.772,5.683-2.296c1.471-1.515,2.216-3.528,2.216-5.985
			c0-2.322-0.709-4.257-2.107-5.751c-1.004-1.07-2.164-1.768-3.464-2.083l0.302-0.033l3.984-0.439l1.053-0.116l-0.176-1.044
			c-0.332-1.968-1.133-3.506-2.382-4.571C26.63,11.077,25.05,10.535,23.182,10.535L23.182,10.535z M20.846,18.721
			c0.218-1.242,0.494-1.787,0.674-2.021c0.539-0.7,1.063-0.781,1.412-0.781c0.522,0,0.768,0.177,0.908,0.31
			c0.231,0.221,0.391,0.64,0.458,1.21l0.093,0.776c-0.317-0.042-0.643-0.063-0.975-0.063C22.484,18.152,21.626,18.343,20.846,18.721
			L20.846,18.721z M22.976,29.051c-0.311,0-0.788-0.076-1.346-0.736c-0.456-0.539-0.687-1.364-0.687-2.453
			c0-0.954,0.192-1.655,0.57-2.085c0.355-0.403,0.755-0.591,1.257-0.591c0.523,0,0.931,0.196,1.287,0.618
			c0.383,0.454,0.585,1.293,0.585,2.425c0,1.378-0.284,2.001-0.522,2.281C23.801,28.884,23.448,29.051,22.976,29.051L22.976,29.051z
			"/>
	</g>
</g>
<circle fill="#0B308E" cx="22.5" cy="22.5" r="22.5"/>
<g>
	<g>
		<path fill="#FFFFFF" d="M17.835,33.591l0.012-0.512c0.069-3.009,0.698-6.12,1.87-9.246c1.045-2.785,2.42-5.336,4.092-7.601h-8.847
			v-4.823h15.078v3.698l-0.149,0.147c-1.123,1.104-2.287,2.723-3.46,4.81c-1.176,2.094-2.083,4.348-2.698,6.701
			c-0.616,2.352-0.924,4.479-0.915,6.323l0.002,0.503H17.835z"/>
		<path d="M29.539,11.909v2.988c-1.162,1.143-2.344,2.783-3.545,4.922s-2.117,4.412-2.746,6.819
			c-0.631,2.407-0.941,4.558-0.931,6.452h-3.97c0.068-2.969,0.682-5.996,1.838-9.082c1.158-3.086,2.703-5.845,4.637-8.276h-9.361
			v-3.823H29.539 M30.539,10.909h-1H15.461h-1v1v3.823v1h1h7.377c-1.445,2.098-2.649,4.419-3.589,6.925
			c-1.191,3.18-1.831,6.345-1.901,9.41l-0.024,1.023h1.023h3.97h1.005l-0.006-1.005c-0.009-1.802,0.294-3.885,0.899-6.193
			c0.604-2.313,1.495-4.527,2.65-6.583c1.149-2.046,2.284-3.627,3.374-4.699l0.299-0.294v-0.419v-2.988V10.909L30.539,10.909z"/>
	</g>
</g>
<circle display="none" fill="#E50012" cx="22.5" cy="22.5" r="22.5"/>
<g display="none">
	<g display="inline">
		<path fill="#FFFFFF" d="M22.617,33.972c-2.06,0-3.805-0.554-5.188-1.645c-1.652-1.305-2.49-3.112-2.49-5.373
			c0-1.248,0.314-2.411,0.934-3.456c0.477-0.804,1.164-1.473,2.049-1.997c-0.707-0.431-1.257-0.962-1.643-1.588
			c-0.53-0.864-0.799-1.822-0.799-2.848c0-1.739,0.618-3.197,1.836-4.335c1.208-1.129,2.926-1.702,5.109-1.702
			c2.161,0,3.875,0.572,5.094,1.701c1.229,1.139,1.852,2.598,1.852,4.336c0,1.092-0.289,2.08-0.86,2.937
			c-0.39,0.585-0.892,1.079-1.498,1.476c0.846,0.479,1.526,1.095,2.03,1.841c0.675,0.999,1.017,2.163,1.017,3.46
			c0,2.112-0.688,3.858-2.048,5.191C26.658,33.298,24.843,33.972,22.617,33.972z M22.485,23.763c-0.843,0-1.445,0.271-1.84,0.828
			c-0.436,0.612-0.648,1.255-0.648,1.967c0,1,0.249,1.778,0.74,2.314c0.486,0.531,1.077,0.789,1.807,0.789
			c0.709,0,1.278-0.246,1.74-0.752c0.467-0.513,0.704-1.289,0.704-2.307c0-0.884-0.234-1.565-0.716-2.085
			C23.801,24.01,23.216,23.763,22.485,23.763z M22.471,15.295c-0.659,0-1.162,0.182-1.536,0.557s-0.557,0.868-0.557,1.507
			c0,0.688,0.179,1.199,0.547,1.563c0.37,0.366,0.861,0.544,1.502,0.544c0.65,0,1.148-0.18,1.523-0.551
			c0.373-0.369,0.555-0.883,0.555-1.571c0-0.639-0.18-1.129-0.549-1.5C23.585,15.475,23.1,15.295,22.471,15.295z"/>
		<path d="M22.427,11.528c2.041,0,3.625,0.522,4.754,1.567c1.127,1.045,1.691,2.368,1.691,3.97c0,0.996-0.259,1.883-0.776,2.659
			s-1.245,1.369-2.183,1.779c1.191,0.479,2.097,1.177,2.717,2.095s0.931,1.979,0.931,3.18c0,1.982-0.633,3.594-1.897,4.834
			s-2.946,1.859-5.046,1.859c-1.953,0-3.579-0.512-4.878-1.537c-1.533-1.211-2.3-2.871-2.3-4.98c0-1.162,0.288-2.229,0.864-3.201
			s1.484-1.722,2.725-2.249c-1.064-0.449-1.838-1.066-2.322-1.853c-0.482-0.786-0.725-1.648-0.725-2.586
			c0-1.602,0.559-2.925,1.678-3.97C18.776,12.051,20.366,11.528,22.427,11.528 M22.427,19.966c0.781,0,1.406-0.231,1.875-0.695
			s0.703-1.106,0.703-1.927c0-0.771-0.232-1.389-0.695-1.853c-0.465-0.464-1.077-0.696-1.839-0.696c-0.791,0-1.421,0.234-1.89,0.703
			s-0.703,1.089-0.703,1.86c0,0.82,0.231,1.46,0.695,1.919S21.655,19.966,22.427,19.966 M22.544,30.161
			c0.85,0,1.553-0.305,2.109-0.915s0.835-1.491,0.835-2.644c0-1.006-0.283-1.814-0.85-2.425s-1.284-0.915-2.153-0.915
			c-1.006,0-1.756,0.346-2.248,1.039c-0.494,0.693-0.74,1.445-0.74,2.256c0,1.133,0.29,2.018,0.871,2.652
			S21.675,30.161,22.544,30.161 M22.427,10.528c-2.313,0-4.147,0.618-5.451,1.837c-1.323,1.236-1.995,2.817-1.995,4.7
			c0,1.12,0.293,2.166,0.872,3.109c0.305,0.495,0.7,0.935,1.181,1.317c-0.659,0.492-1.191,1.077-1.591,1.751
			c-0.666,1.123-1.004,2.372-1.004,3.711c0,2.421,0.902,4.36,2.68,5.766c1.473,1.162,3.322,1.752,5.498,1.752
			c2.361,0,4.295-0.722,5.746-2.146c1.458-1.43,2.197-3.296,2.197-5.548c0-1.398-0.371-2.657-1.102-3.739
			c-0.416-0.615-0.939-1.148-1.566-1.595c0.398-0.34,0.745-0.729,1.035-1.165c0.627-0.94,0.944-2.021,0.944-3.214
			c0-1.883-0.677-3.465-2.012-4.703C26.546,11.145,24.718,10.528,22.427,10.528L22.427,10.528z M22.427,18.966
			c-0.669,0-0.977-0.228-1.15-0.399c-0.268-0.265-0.398-0.661-0.398-1.208c0-0.666,0.234-0.977,0.41-1.153
			c0.276-0.276,0.663-0.41,1.183-0.41c0.652,0,0.959,0.23,1.133,0.404c0.171,0.172,0.401,0.479,0.401,1.145
			c0,0.547-0.133,0.945-0.406,1.216C23.422,18.734,23.109,18.966,22.427,18.966L22.427,18.966z M22.544,29.161
			c-0.59,0-1.047-0.199-1.438-0.626c-0.41-0.448-0.609-1.095-0.609-1.978c0-0.604,0.182-1.152,0.555-1.676
			c0.189-0.267,0.542-0.619,1.434-0.619c0.592,0,1.043,0.189,1.42,0.596c0.393,0.422,0.583,0.992,0.583,1.744
			c0,0.89-0.193,1.552-0.574,1.97C23.548,28.974,23.112,29.161,22.544,29.161L22.544,29.161z"/>
	</g>
</g>
<circle display="none" fill="#7E5226" cx="22.5" cy="22.5" r="22.5"/>
<g display="none">
	<g display="inline">
		<path fill="#FFFFFF" d="M21.804,33.972c-1.795,0-3.275-0.491-4.399-1.461c-1.121-0.969-1.848-2.416-2.159-4.305l-0.086-0.521
			l5-0.551l0.06,0.491c0.083,0.688,0.288,1.193,0.61,1.5c0.316,0.302,0.736,0.448,1.281,0.448c0.69,0,1.27-0.319,1.77-0.975
			c0.307-0.402,0.691-1.302,0.925-3.305c-0.938,0.694-2.033,1.045-3.266,1.045c-1.826,0-3.419-0.711-4.736-2.112
			c-1.31-1.393-1.975-3.221-1.975-5.434c0-2.302,0.7-4.191,2.082-5.614c1.386-1.428,3.17-2.152,5.303-2.152
			c2.324,0,4.257,0.911,5.747,2.708c1.466,1.768,2.209,4.673,2.209,8.633c0,4.028-0.773,6.995-2.298,8.817
			C26.324,33.034,24.283,33.972,21.804,33.972z M22.024,15.441c-0.612,0-1.107,0.236-1.513,0.722
			c-0.424,0.505-0.639,1.39-0.639,2.63c0,1.259,0.236,2.179,0.703,2.732c0.451,0.536,0.997,0.796,1.668,0.796
			c0.645,0,1.175-0.25,1.621-0.765c0.46-0.529,0.692-1.345,0.692-2.427c0-1.2-0.27-2.133-0.801-2.771
			C23.24,15.742,22.674,15.441,22.024,15.441z"/>
		<path d="M22.214,11.528c2.178,0,3.965,0.843,5.362,2.527s2.094,4.455,2.094,8.313c0,3.926-0.727,6.758-2.182,8.496
			s-3.35,2.606-5.684,2.606c-1.68,0-3.037-0.446-4.072-1.34s-1.699-2.229-1.992-4.007l3.984-0.439
			c0.098,0.811,0.352,1.412,0.762,1.803s0.952,0.586,1.626,0.586c0.85,0,1.572-0.391,2.167-1.172s0.977-2.402,1.143-4.863
			c-1.035,1.201-2.328,1.801-3.881,1.801c-1.689,0-3.147-0.651-4.372-1.955c-1.227-1.304-1.839-3.001-1.839-5.091
			c0-2.178,0.646-3.933,1.94-5.266S20.212,11.528,22.214,11.528 M22.244,22.822c0.792,0,1.458-0.313,1.999-0.938
			c0.543-0.625,0.814-1.543,0.814-2.754c0-1.328-0.307-2.358-0.916-3.091c-0.611-0.732-1.316-1.099-2.117-1.099
			c-0.762,0-1.395,0.301-1.896,0.901c-0.504,0.601-0.755,1.584-0.755,2.951c0,1.387,0.273,2.405,0.82,3.055
			S21.423,22.822,22.244,22.822 M22.214,10.528c-2.273,0-4.178,0.775-5.662,2.304c-1.475,1.52-2.223,3.525-2.223,5.962
			c0,2.344,0.71,4.287,2.11,5.776c1.015,1.079,2.184,1.777,3.49,2.087l-0.316,0.034l-3.984,0.439l-1.048,0.116l0.171,1.041
			c0.331,2.006,1.113,3.555,2.326,4.601c1.217,1.051,2.807,1.583,4.726,1.583c2.634,0,4.804-0.997,6.451-2.965
			c1.625-1.941,2.415-4.93,2.415-9.138c0-4.137-0.76-7.065-2.324-8.952C26.757,11.5,24.693,10.528,22.214,10.528L22.214,10.528z
			 M22.244,21.822c-0.522,0-0.931-0.196-1.286-0.618c-0.383-0.455-0.585-1.288-0.585-2.411c0-1.395,0.283-2.025,0.521-2.309
			c0.315-0.376,0.663-0.544,1.13-0.544c0.314,0,0.796,0.077,1.349,0.739c0.453,0.545,0.684,1.37,0.684,2.45
			c0,0.958-0.191,1.663-0.569,2.098C23.137,21.634,22.742,21.822,22.244,21.822L22.244,21.822z M21.541,26.84
			c0.952,0,1.828-0.191,2.621-0.572c-0.221,1.246-0.497,1.792-0.677,2.028c-0.532,0.697-1.038,0.778-1.373,0.778
			c-0.547,0-0.796-0.177-0.937-0.311c-0.232-0.221-0.391-0.635-0.458-1.197l-0.094-0.784C20.922,26.82,21.228,26.84,21.541,26.84
			L21.541,26.84z"/>
	</g>
</g>
</svg>
